<?xml version="1.0" encoding="UTF-8"?>
<!-- Created with Inkscape (http://www.inkscape.org/) -->
<svg width="228" height="110" version="1.1" viewBox="0 0 3141.6799 1512.4667" xmlns="http://www.w3.org/2000/svg"><g><path transform="matrix(.13333333 0 0 -.13333333 0 1512.4667)" d="m23505.9 61h-11225.2v11226.4h11225.2v-11226.4" fill="#ffffff"/><path transform="matrix(.13333333 0 0 -.13333333 0 1512.4667)" d="M 0,11338.4 V 0 H 11338.6 V 11338.4 H 0" fill="#ffffff"/><path transform="matrix(.13333333 0 0 -.13333333 0 1512.4667)" d="M 70.8672,70.9023 H 11267.7 V 11267.5 H 70.8672 V 70.9023" fill="#002147"/><g fill="#ffffff"><path transform="matrix(.13333333 0 0 -.13333333 0 1512.4667)" d="m2286.91 1953.42c0 390.63-189.41 663.34-508.97 663.34-347.47 0-509.47-327.36-509.47-663.34 0-390.55 189.58-662.92 509.47-662.92 347.3 0 508.97 327.35 508.97 662.92m237.01 7.71c0-429.69-331.63-741.63-745.98-741.63-422.48 0-746.23 315.47-746.23 726.37 0 429.94 331.63 741.95 746.23 741.95 422.31 0 745.98-315.95 745.98-726.69"/><path transform="matrix(.13333333 0 0 -.13333333 0 1512.4667)" d="m6842.49 1953.42c0 390.63-189.57 663.34-509.22 663.34-347.38 0-509.14-327.36-509.14-663.34 0-390.55 189.41-662.92 509.14-662.92 347.31 0 509.22 327.35 509.22 662.92m236.76 7.71c0-429.69-331.54-741.63-745.98-741.63-422.47 0-746.23 315.47-746.23 726.37 0 429.94 331.72 741.95 746.23 741.95 422.4 0 745.98-315.95 745.98-726.69"/><path transform="matrix(.13333333 0 0 -.13333333 0 1512.4667)" d="m7983.28 1716.93c-82.97 118.43-114.57 161.59-217.07 161.59h-110.62v-481.64c0-39.47 15.83-58.88 59.33-66.88l161.75-35.5v-51.6h-635.52v51.6l146.08 35.5c43.25 11.7 59.09 27.41 59.09 66.88v1113.38c0 39.48-15.84 55.24-59.09 66.89l-146.08 35.53v51.62h619.68c130.41 0 221.09-12.15 296.1-39.47 154.04-59.33 240.78-205.66 240.78-343.45 0-173.98-130.16-320.3-347.39-371.02v-7.88c43.58-20.1 67.13-47.59 221.17-249.23l193.35-256.37c27.66-39.47 63.19-62.98 106.69-70.98l142.05-31.4v-51.6h-339.51c-39.47 0-59.25 12.1-94.7 59.6zm-327.69 228.89h177.67c268.44 0 327.69 169.46 327.69 331.54 0 122.36-55.31 236.84-181.61 291.99-67.05 27.74-130.24 27.74-217.15 27.74h-106.6v-651.27"/><path transform="matrix(.13333333 0 0 -.13333333 0 1512.4667)" d="m5200.23 2178.69h59.26v-473.85h-59.26l-35.53 142.06c-11.98 51.54-43.5 71.07-90.77 71.07h-343.61v-521.04c0-39.47 15.92-58.83 59.26-66.93l161.99-35.6v-51.4h-635.6v51.4l146.08 35.6c43.5 11.7 59.25 27.46 59.25 66.93v1113.3c0 39.48-15.75 55.24-59.25 66.89l-146.08 35.61v51.54h1073.67v-355.67h-59.25l-66.97 213.45c-15.83 55.07-39.47 75.01-86.9 75.01h-446.2v-611.8h343.61c47.27 0 74.85 19.45 90.77 71.07l35.53 122.36"/><path transform="matrix(.13333333 0 0 -.13333333 0 1512.4667)" d="m9242.48 2597.06v-1223.52c0-51.64 11.74-63.64 63.11-63.64h173.73c165.78 0 288.14 24.1 375.05 87.11 145.93 106.36 213.13 299.87 213.13 544.75 0 240.78-67.2 477.38-264.51 591.94-82.8 47.52-189.49 63.36-355.34 63.36zm-414.51-1354.06v51.5l145.99 35.5c43.5 11.7 59.25 27.46 59.25 67.01v1113.22c0 39.47-15.75 55.23-59.25 66.97l-145.99 35.53v51.54h667.11c181.61 0 311.85-23.8 418.46-71.07 268.46-122.44 390.86-386.86 390.86-647.41 0-252.93-94.9-489.45-335.63-615.79-110.38-59.5-264.42-87-465.73-87h-675.07"/><path transform="matrix(.13333333 0 0 -.13333333 0 1512.4667)" d="m3080.53 1294.5v-51.5h-501.34v51.5l126.14 31.3c47.68 12.2 79.03 27.62 110.54 63.07l434.38 544.91-434.38 576.44c-27.49 39.47-62.86 59.08-106.44 70.98l-118.5 31.51v51.54h623.7v-51.54l-134.1-27.48c-47.51-8.05-35.61-27.66-11.98-59.34l319.73-457.93h7.88l327.77 457.93c23.55 31.68 31.6 43.41-11.9 55.31l-126.3 31.51v51.54h501.34v-51.54l-126.3-31.51c-47.35-11.9-78.94-27.57-110.62-63.02l-410.5-517.51 457.85-603.67c27.74-39.56 63.27-59 106.6-71.2l118.59-31.3v-51.5h-623.78v51.5l134.17 27.5c47.44 7.9 39.48 23.38 15.76 55.63l-347.38 489.27h-7.88l-351.25-485.99c-23.71-31.51-31.59-42.91 11.74-55.11l126.46-31.3"/><path transform="matrix(.13333333 0 0 -.13333333 0 1512.4667)" d="m1585.21 3333.06c-39.22-39.23-98.15-65.49-180.29-65.49-71.65 0-137.96 22.57-182.93 67.54-61.3 61.22-58.51 139.51-58.51 223.05v395.31h80.59v-424.6c0-53.75-1.65-106.03 39.88-147.64 28.81-28.72 73.04-44.31 124-44.31 49.82 0 89.78 17.23 114.81 42.17 46.21 46.21 43.25 96.52 43.25 218.14v356.24h79.44v-335.4c0-127.36 5.09-219.69-60.24-285.01"/><path transform="matrix(.13333333 0 0 -.13333333 0 1512.4667)" d="m2300.57 3280.24-324.33 551.89 1.97-551.89h-74.02v673.18h82.64l325.39-554.84-1.97 554.84h74.11v-673.18h-83.79"/><path transform="matrix(.13333333 0 0 -.13333333 0 1512.4667)" d="m2665.06 3953.41h81v-673.18h-81v673.18"/><path transform="matrix(.13333333 0 0 -.13333333 0 1512.4667)" d="m3249.71 3280.32h-92.73l-232.09 673.18h84.37l196.38-594.32 202.21 594.32h78.38l-236.52-673.18"/><path transform="matrix(.13333333 0 0 -.13333333 0 1512.4667)" d="m3669.51 3280.32v673.18h366.01v-67.21h-286.66v-222.15h269.02v-65.41h-269.02v-249.23h294.62v-69.18h-373.97"/><path transform="matrix(.13333333 0 0 -.13333333 0 1512.4667)" d="m4628.82 3280.32-77.3 174.47c-48.01 107.34-69.76 118.34-167.33 118.34h-47.03v-292.81h-79.27v673.18h145.17c89.78 0 157.57 0.58 210.5-52.43 33.73-33.65 52.44-78.46 52.44-134.59 0-46.78-13.54-85.68-41.69-115.63-24.29-25.85-64.34-48.42-108-53.1 23.72-1.39 43.33-14.2 55.97-26.83 18.38-18.39 31.68-46.13 51.37-90.11l89.46-200.49zm-73.53 571.83c-38.57 38.66-88.63 36.85-143.53 36.85h-74.6v-251.37h26.76c68.03 0 141.23-3.53 187.35 42.59 22.32 22.33 34.72 53.59 34.72 87.74 0 37.91-14.78 68.36-30.7 84.19"/><path transform="matrix(.13333333 0 0 -.13333333 0 1512.4667)" d="m5499.54 3953.41h81v-673.18h-81v673.18"/><path transform="matrix(.13333333 0 0 -.13333333 0 1512.4667)" d="m6042.75 3886.32v-605.97h-81v605.97h-199.99v67.13h480.49v-67.13h-199.5"/><path transform="matrix(.13333333 0 0 -.13333333 0 1512.4667)" d="m6629.71 3546.35v-265.98h-80.01v265.98l-213.62 407.12h92.57l165.94-315.7 161.01 315.7h87.81l-213.7-407.12"/><path transform="matrix(.13333333 0 0 -.13333333 0 1512.4667)" d="m7598.83 3267.56c-174.31 0-301.59 143.95-301.59 346.24 0 207.95 125.97 352.39 307.74 352.39 176.36 0 300.69-142.88 300.69-346.16 0-208.36-124.65-352.47-306.84-352.47m-0.25 629.85c-131.96 0-217.64-111.36-217.64-279.35 0-167.25 95.37-281.16 221.91-281.16 140.74 0 218.95 119.74 218.95 286.58 0 164.13-92.4 273.93-223.22 273.93"/><path transform="matrix(.13333333 0 0 -.13333333 0 1512.4667)" d="m8207.4 3886.32v-222.15h260.31v-65.49h-260.31v-318.33h-80.34v673.1h357.48v-67.13h-277.14"/><path transform="matrix(.13333333 0 0 -.13333333 0 1512.4667)" d="m4876.33 3789.23c0 103.48 83.3 177.1 204.84 177.1 123.09 0 182.1-63.61 188.09-70.17l-39.47-47.76c-15.02 11.65-68.94 51.2-143.29 51.2-85.92 0-133.44-44.89-133.44-105.77 0-29.47 12.06-50.72 31.51-68.21 23.06-20.67 56.79-36.02 92.98-52.68 45.14-20.76 107.02-44.15 148.46-87.15 28.64-29.71 50.39-68.28 50.39-121.38 0-111.94-77.72-197.28-217.39-197.28-119.08 0-194.25 65.57-201.31 72.21l37.09 54.58c19.12-14.2 93.89-58.43 162.17-58.43 101.26 0 139.26 55.39 139.26 122.35 0 31.03-14.2 56.06-35.2 76.17-31.35 30.27-78.87 50.54-124.42 71.31-45.22 20.68-88.79 42.26-119.65 74.76-20.35 21.34-40.62 56.3-40.62 109.15"/><path transform="matrix(.13333333 0 0 -.13333333 0 1512.4667)" d="m7968.82 8507.93c0 84.61-28.55 152.8-90.51 189.16-38.9 22.81-91.43 30.28-156.18 30.28h-471.38v-951.8h512.99c118.26 0 187.77-26.58 193.84-132.61h11.33l-0.09 864.97"/><path transform="matrix(.13333333 0 0 -.13333333 0 1512.4667)" d="m8034.71 8507.93c0 84.61 28.56 152.8 90.6 189.16 38.82 22.81 91.34 30.28 156.17 30.28h474.67v-951.8h-516.36c-118.26 0-187.77-26.58-193.84-132.61h-11.33l0.09 864.97"/><path transform="matrix(.13333333 0 0 -.13333333 0 1512.4667)" d="m8854.59 8657.04v-1006.12h-728.83l-8.29-20.6c-12.72-31.35-35.37-60.48-114.97-60.48-79.44 0-102.26 29.13-114.98 60.48l-8.29 20.6h-727.59v1006.12h-65.82v-30.61l-63.03 19.29c-7.38 24.95-30.12 43.16-57.36 43.16-32.99 0-59.91-26.83-59.91-59.99 0-33.07 26.92-59.9 59.91-59.9 14.52 0 27.65 5.33 37.91 13.87l82.48-25.28v-80.92l-61.96 11.08c-9.11 21.42-30.37 36.44-55.15 36.44-32.99 0-59.83-26.84-59.83-59.99 0-33.07 26.84-59.83 59.83-59.83 17.07 0 32.5 7.14 43.41 18.71l73.7-13.29v-82.48l-64.75 2.96c-10.51 17.31-29.38 29.21-51.13 29.21-33.15 0-60.07-26.83-60.07-59.99 0-33.07 26.92-59.9 60.07-59.9 19.86 0 37.42 9.84 48.34 24.86l67.54-2.95v-89.62l-66.23-2.38c-10.83 15.18-28.48 25.28-48.66 25.28-32.99 0-59.91-26.92-59.91-59.99 0-33.08 26.92-59.99 59.91-59.99 21.66 0 40.54 11.73 51.04 28.97l63.85 2.29v-82.64l-72.38-12.39c-11 11.57-26.35 19.04-43.5 19.04-33.15 0-60.07-26.92-60.07-59.99s26.92-59.99 60.07-59.99c24.46 0 45.55 14.85 54.82 36.03l61.06 10.5v-80.99l-79.11-24.22c-10.43 8.54-23.47 13.96-38 13.96-32.99 0-59.83-26.92-59.83-59.99 0-33.08 26.84-60 59.83-60 27.16 0 49.98 18.31 57.28 43.17l59.83 18.22v-78.46l-87.48-37.66c-9.36 6.23-20.69 10.01-32.91 10.01-32.99 0-59.91-26.92-59.91-59.99 0-33.08 26.92-59.99 59.91-59.99 29.54 0 53.91 21.42 58.92 49.48l61.47 26.51v-71.56h752.95c30.45-53.43 83.47-81 163.73-81s133.27 27.57 163.88 81h754.03v1071.94h-65.82"/><path transform="matrix(.13333333 0 0 -.13333333 0 1512.4667)" d="m7507.19 8992.57c-152.15 0-275.5-23.72-275.5-52.85 0-29.22 123.35-52.85 275.5-52.85s275.57 23.63 275.57 52.85c0 29.13-123.42 52.85-275.57 52.85"/><path transform="matrix(.13333333 0 0 -.13333333 0 1512.4667)" d="m7886.58 9322.67-159.13-111.77-1.31-11.41 37.83-16.9c7.47-3.78 7.55-9.77 3.69-13.38l-99.87-84.37-9.52 0.82-70.82 104.39c-4.85 6.73-3.04 13.46 5.5 14.93l47.43 7.72v11.98l-123.1 173.98h-20.27l-123.1-173.98v-11.98l47.52-7.72c8.45-1.47 10.26-8.2 5.41-14.93l-70.82-104.39-9.52-0.82-93.23 84.37c-3.85 3.61-3.77 9.6 3.7 13.38l37.83 16.9-1.4 11.41-165.69 111.77-13.46-5.34 97.33-297.15c49.41 22.24 162.74 37.83 295.61 38.49 132.78-0.66 246.19-16.25 295.6-38.49l97.25 297.15-13.46 5.34"/><path transform="matrix(.13333333 0 0 -.13333333 0 1512.4667)" d="m8001.36 6999.56c-152.23 0-275.57-23.64-275.57-52.85 0-29.22 123.34-52.85 275.57-52.85 152.15 0 275.5 23.63 275.5 52.85 0 29.21-123.35 52.85-275.5 52.85"/><path transform="matrix(.13333333 0 0 -.13333333 0 1512.4667)" d="m8380.68 7329.67-159.04-111.77-1.4-11.41 37.83-16.99c7.47-3.69 7.56-9.68 3.7-13.29l-99.79-84.37-9.52 0.83-70.83 104.38c-4.84 6.73-3.12 13.46 5.5 14.94l47.44 7.71v11.9l-123.1 174.07h-20.36l-123.1-174.07v-11.9l47.52-7.71c8.54-1.48 10.26-8.21 5.5-14.94l-70.82-104.38-9.61-0.83-93.22 84.37c-3.86 3.61-3.78 9.6 3.69 13.29l37.83 16.99-1.31 11.41-165.69 111.77-13.46-5.25 97.25-297.24c49.4 22.24 162.82 37.75 295.6 38.4 132.86-0.65 246.2-16.16 295.6-38.4l97.25 297.24-13.46 5.25"/><path transform="matrix(.13333333 0 0 -.13333333 0 1512.4667)" d="m8494.28 8992.57c-152.15 0-275.5-23.72-275.5-52.85 0-29.22 123.35-52.85 275.5-52.85s275.49 23.63 275.49 52.85c0 29.13-123.34 52.85-275.49 52.85"/><path transform="matrix(.13333333 0 0 -.13333333 0 1512.4667)" d="m8873.64 9322.67-159.05-111.77-1.39-11.41 37.83-16.9c7.47-3.78 7.55-9.77 3.69-13.38l-99.79-84.37-9.52 0.82-70.82 104.39c-4.84 6.73-3.12 13.46 5.41 14.93l47.52 7.72v11.98l-123.1 173.98h-20.27l-123.18-173.98v-11.98l47.6-7.72c8.45-1.47 10.17-8.2 5.41-14.93l-70.9-104.39-9.52-0.82-93.15 85.43c-3.93 3.61-3.85 9.61 3.62 13.38l37.83 15.84-1.4 11.41-165.61 111.77-13.46-5.34 97.25-297.15c49.41 22.24 162.74 37.83 295.6 38.49 132.87-0.66 246.2-16.25 295.61-38.49l97.25 297.15-13.46 5.34"/></g><g fill="#002147"><path transform="matrix(.13333333 0 0 -.13333333 0 1512.4667)" d="m7362.15 8473.37c0-18.63 4.68-22.24 14.69-22.24 18.05 0 36.36 19.94 36.36 57.04 0 45.13-22.9 57.69-40.71 57.69-4.92 0-7.55-0.58-9.11-1.4-0.98-0.49-1.23-5.33-1.23-10.5zm10.34 102.99c25.77 0 47.19-5 61.22-18.62 9.85-9.44 18.14-24.95 18.14-43.09 0-52.19-39.72-74.6-88.3-74.6h-54.09v8.13c15.43 1.31 17.07 2.79 17.07 25.44v69.18c0 22.65-1.64 24.21-15.34 25.36v8.2h61.3"/><path transform="matrix(.13333333 0 0 -.13333333 0 1512.4667)" d="m7509.01 8513.46c0-38 14.2-65.74 34.79-65.74 18.06 0 27.91 17.48 27.91 55.48 0 42.1-15.1 65.41-33.08 65.41-16.16 0-29.62-18.39-29.62-55.15m101.84-3.53c0-44.97-30.69-73.04-70.99-73.04-42.42 0-69.83 30.86-69.83 69.43 0 33.97 22.65 73.2 72.79 73.2 38.41 0 68.03-28.15 68.03-69.59"/><path transform="matrix(.13333333 0 0 -.13333333 0 1512.4667)" d="m7796.09 8576.42v-8.21c-16-1.47-16.82-2.29-16.17-24.37l2.06-70.25c0.57-23.22 0.98-23.88 16.08-25.36v-8.2h-65.65v8.2c15.84 1.48 16.41 2.14 16.17 25.36l-0.58 73.86h-0.9l-40.46-105.21h-11.24l-38.49 97.82h-0.41l-1.48-46.61c-0.66-17.97-0.41-27.98 0.41-34.47 0.82-7.87 5.5-9.76 19.12-10.75v-8.2h-51.86v8.2c10.09 0.82 14.03 2.88 15.34 10.75 1.07 6.49 2.38 17.57 3.37 36.61l2.29 42.42c1.4 26.43-0.24 28.73-16.82 30.2v8.21h49.41l36.68-83.13 32.09 83.13h51.04"/><path transform="matrix(.13333333 0 0 -.13333333 0 1512.4667)" d="m7864.18 8473.58c0-22.65 1.64-24.13 16.09-25.44v-8.12h-67.87v8.12c14.44 1.31 16.08 2.79 16.08 25.44v69.26c0 22.65-1.64 24.13-16.08 25.36v8.21h67.87v-8.21c-14.45-1.23-16.09-2.71-16.09-25.36v-69.26"/><path transform="matrix(.13333333 0 0 -.13333333 0 1512.4667)" d="m7526.31 8186.78h-17.97l-77.72 99.05h-0.41v-38.65c0-21.99 0.82-33.56 1.72-40.05 1.07-7.3 6.73-10.09 20.52-10.75v-8.12h-52.2v8.12c9.2 0.49 14.69 3.45 15.76 10.75 0.82 6.49 1.64 18.06 1.64 40.05v38.65c0 15.51-0.41 18.3-4.68 24.13-3.11 4.43-8.28 5.83-15.83 6.48v8.21h46.28l69.84-87.07h0.49v28.14c0 22-0.9 33.57-1.64 40.05-1.15 7.31-6.81 10.02-20.6 10.67v8.21h53.43v-8.21c-10.43-0.41-15.92-3.36-16.91-10.67-0.82-6.48-1.72-18.05-1.72-40.05v-78.94"/><path transform="matrix(.13333333 0 0 -.13333333 0 1512.4667)" d="m7611.27 8186.78c-14.44 37.75-34.14 89.61-41.77 109.31-6.81 18.05-11.08 19.12-21.17 20.35v8.21h67.86v-8.21l-7.22-0.82c-7.71-0.9-7.71-2.79-5.41-10.09 3.77-11.74 20.35-53.1 28.15-73.62 6.48 17.81 19.85 57.86 23.14 67.79 4.51 12.8 3.28 15.02-6.24 16.09l-6.32 0.65v8.21h50.8v-8.21c-11.9-1.48-14.85-2.54-23.06-21.58-1.23-2.96-26.84-65.25-42.59-108.08h-16.17"/><path transform="matrix(.13333333 0 0 -.13333333 0 1512.4667)" d="m7705.91 8231.47c4.43-12.14 16.82-35.45 37.34-35.45 10.91 0 19.29 7.14 19.29 20.76 0 12.39-8.13 19.29-20.93 25.2l-3.12 1.47c-17.23 7.96-36.77 18.8-36.77 41.37 0 23.71 17.24 42.91 50.15 42.91 6.48 0 13.21-0.73 19.36-2.46 4.76-1.31 8.13-2.05 10.84-2.95 0.9-8.21 2.38-18.46 4.67-32.75l-9.27-1.47c-4.59 13.87-11.9 28.8-28.56 28.8-10.67 0-18.3-8.21-18.3-18.3 0-10.5 8.21-16.57 21.67-22.65l4.59-2.13c19.37-8.78 35.87-19.53 35.87-43.99 0-25.85-20.69-44.73-53.27-44.73-8.37 0-16.98 1.65-22.65 3.54-6.23 2.13-10.66 3.77-13.21 5.08-1.64 9.6-4.35 20.93-6.97 34.96l9.27 2.79"/><path transform="matrix(.13333333 0 0 -.13333333 0 1512.4667)" d="m7433.01 7970.06c0-22.65 1.64-24.12 16.08-25.44v-8.12h-67.87v8.12c14.45 1.32 16.09 2.79 16.09 25.44v69.27c0 22.65-1.64 24.12-16.09 25.36v8.2h67.87v-8.2c-14.44-1.24-16.08-2.71-16.08-25.36v-69.27"/><path transform="matrix(.13333333 0 0 -.13333333 0 1512.4667)" d="m7516.11 7967.34c0-10.91 0.41-16.08 4.11-17.97 3.36-1.81 8.2-1.97 14.77-1.97 6.65 0 15.76 0.57 20.11 6.15 3.36 3.95 6.89 9.61 10.34 20.77l8.94-1.56c-1.23-7.96-5.58-29.79-7.55-36.19h-104.06v8.12c15.92 1.24 17.65 2.71 17.65 25.36v69.27c0 22.65-1.73 24.12-15.76 25.35v8.21h68.28v-8.21c-15.18-1.23-16.83-2.7-16.83-25.35v-71.98"/><path transform="matrix(.13333333 0 0 -.13333333 0 1512.4667)" d="m7633.19 7967.34c0-10.91 0.41-16.08 4.19-17.97 3.36-1.81 8.12-1.97 14.6-1.97 6.73 0 15.84 0.57 20.19 6.15 3.37 3.95 6.9 9.61 10.34 20.77l8.95-1.56c-1.23-7.96-5.58-29.79-7.47-36.19h-104.14v8.12c15.92 1.24 17.64 2.71 17.64 25.36v69.27c0 22.65-1.72 24.12-15.76 25.35v8.21h68.2v-8.21c-15.1-1.23-16.74-2.7-16.74-25.35v-71.98"/><path transform="matrix(.13333333 0 0 -.13333333 0 1512.4667)" d="m7733.44 7935.03c-14.44 37.75-34.22 89.61-41.77 109.3-6.98 18.06-11.08 19.05-21.17 20.36v8.21h67.78v-8.21l-7.14-0.82c-7.79-0.9-7.79-2.79-5.49-10.09 3.85-11.74 20.35-53.1 28.14-73.62 6.41 17.81 19.95 57.86 23.23 67.79 4.43 12.72 3.2 15.02-6.24 16.08l-6.32 0.66v8.21h50.8v-8.21c-11.98-1.48-14.93-2.54-23.06-21.58-1.23-2.96-26.83-65.25-42.59-108.08h-16.17"/><path transform="matrix(.13333333 0 0 -.13333333 0 1512.4667)" d="m8296.99 8576.42v-8.21c-15.92-1.47-16.82-2.29-16.17-24.37l2.14-70.25c0.49-23.22 0.9-23.88 16.08-25.36v-8.2h-65.65v8.2c15.76 1.48 16.33 2.14 16.08 25.36l-0.49 73.86h-0.98l-40.46-105.21h-11.25l-38.4 97.82h-0.5l-1.39-46.61c-0.74-17.97-0.49-27.98 0.33-34.47 0.82-7.87 5.5-9.76 19.12-10.75v-8.2h-51.78v8.2c10.01 0.82 14.03 2.88 15.26 10.75 1.07 6.49 2.38 17.57 3.37 36.61l2.29 42.42c1.48 26.43-0.16 28.73-16.74 30.2v8.21h49.32l36.69-83.13 32.09 83.13h51.04"/><path transform="matrix(.13333333 0 0 -.13333333 0 1512.4667)" d="m8365.13 8473.58c0-22.65 1.64-24.13 16.08-25.44v-8.12h-67.86v8.12c14.44 1.31 16.08 2.79 16.08 25.44v69.26c0 22.65-1.64 24.13-16.08 25.36v8.21h67.86v-8.21c-14.44-1.23-16.08-2.71-16.08-25.36v-69.26"/><path transform="matrix(.13333333 0 0 -.13333333 0 1512.4667)" d="m8521.23 8438.53h-18.06l-77.63 99.06h-0.41v-38.65c0-22 0.82-33.57 1.72-40.05 0.99-7.31 6.57-10.1 20.52-10.75v-8.13h-52.2v8.13c9.2 0.49 14.69 3.44 15.68 10.75 0.9 6.48 1.64 18.05 1.64 40.05v38.65c0 15.51-0.33 18.3-4.51 24.12-3.2 4.44-8.46 5.83-15.92 6.49v8.2h46.28l69.84-87.07h0.49v28.15c0 21.99-0.9 33.56-1.72 40.05-1.07 7.3-6.73 10.01-20.52 10.67v8.2h53.43v-8.2c-10.43-0.41-15.92-3.37-16.99-10.67-0.74-6.49-1.64-18.06-1.64-40.05v-78.95"/><path transform="matrix(.13333333 0 0 -.13333333 0 1512.4667)" d="m8582.28 8493.73h26.84l-13.21 40.05h-0.58zm26.59-45.54 6.32 0.82c7.8 1.06 8.29 3.2 5.5 10.75l-7.63 21.42h-34.3l-6.32-20.19c-2.71-9.03-2.71-11.08 6.89-12.15l6.07-0.65v-8.21h-48.83v8.21c10.67 1.47 13.79 2.3 20.77 19.94l42.01 108.49 14.37 2.87 14.19-39.64c9.11-24.95 18.14-49.65 26.1-71.07 6.73-18.29 10.51-19.28 20.85-20.59v-8.21h-65.99v8.21"/><path transform="matrix(.13333333 0 0 -.13333333 0 1512.4667)" d="m8295.28 8221.83c0-22.65 1.73-24.13 19.37-25.44v-8.12h-73.45v8.12c16.83 1.31 18.47 2.79 18.47 25.44v91.91h-3.61c-14.04 0-19.7-2.54-23.15-6.4-2.38-3.03-4.92-8.45-7.71-20.27h-8.78c0.9 17.65 2.05 32.09 2.54 42.76h6.48c3.21-4.76 5.26-5.17 10.92-5.17h83.62c5.59 0 6.57 1.23 9.93 5.17h6.57c0.08-8.78 1.23-26.67 2.22-42.1l-9.19-0.66c-3.21 12.56-5.5 18.06-8.54 21.67-3.61 3.69-10.59 5-20.6 5h-5.09v-91.91"/><path transform="matrix(.13333333 0 0 -.13333333 0 1512.4667)" d="m8405.17 8221.83c0-22.65 1.64-24.13 16.17-25.44v-8.12h-67.95v8.12c14.44 1.31 16.08 2.79 16.08 25.44v69.18c0 22.73-1.64 24.21-16.08 25.44v8.21h67.95v-8.21c-14.53-1.23-16.17-2.71-16.17-25.44v-69.18"/><path transform="matrix(.13333333 0 0 -.13333333 0 1512.4667)" d="m8477.86 8261.72c0-38 14.19-65.74 34.79-65.74 18.06 0 27.9 17.48 27.9 55.48 0 42.1-15.1 65.4-33.15 65.4-16.09 0-29.54-18.38-29.54-55.14m101.76-3.62c0-44.89-30.7-72.95-70.91-72.95-42.43 0-69.92 30.85-69.92 69.34 0 34.06 22.65 73.29 72.79 73.29 38.49 0 68.04-28.15 68.04-69.68"/><path transform="matrix(.13333333 0 0 -.13333333 0 1512.4667)" d="m8357.26 8072.87v-8.2c-15.92-1.4-16.74-2.3-16.17-24.38l2.14-70.25c0.57-23.22 0.98-23.88 16.08-25.36v-8.12h-65.65v8.12c15.76 1.48 16.33 2.14 16.17 25.36l-0.58 73.94h-0.98l-40.46-105.2h-11.25l-38.4 97.74h-0.5l-1.39-46.54c-0.66-18.05-0.41-28.06 0.33-34.55 0.9-7.87 5.5-9.76 19.12-10.75v-8.12h-51.78v8.12c10.09 0.82 14.03 2.88 15.34 10.75 0.99 6.49 2.3 17.57 3.29 36.69l2.29 42.34c1.48 26.43-0.16 28.81-16.74 30.21v8.2h49.32l36.69-83.13 32.08 83.13h51.05"/><path transform="matrix(.13333333 0 0 -.13333333 0 1512.4667)" d="m8389.68 8039.32c0 22.65-1.64 24.12-15.67 25.36v8.2h99.38c0.17-3.61 1.31-18.87 2.3-34.63l-9.11-0.58c-2.13 10.26-4.43 16.09-7.88 19.45-3.28 3.61-10.26 4.85-21.42 4.85h-3.53c-7.96 0-8.37 0-8.37-7.31v-40.54h10.42c18.14 0 18.72 1.23 20.85 17.24h9.19v-49.57h-9.19c-2.13 18.46-2.71 19.77-20.85 19.77h-10.42v-34.22c0-10.91 0.41-16.08 4.19-17.97 3.36-1.8 8.2-1.97 14.69-1.97 8.37 0 17.64 1.31 22.32 6.32 3.53 3.78 6.98 11.49 10.26 21.58l9.11-1.47c-0.99-10.26-5.34-31.68-7.22-37.26h-106.85v8.12c16.16 1.24 17.8 2.71 17.8 25.36v69.27"/><path transform="matrix(.13333333 0 0 -.13333333 0 1512.4667)" d="m8533.03 7990.21h26.83l-13.21 40.05h-0.65zm26.59-45.54 6.32 0.82c7.79 1.07 8.29 3.2 5.5 10.75l-7.64 21.42h-34.3l-6.32-20.19c-2.71-9.03-2.71-11.08 6.81-12.23l6.16-0.57v-8.21h-48.83v8.21c10.67 1.48 13.78 2.3 20.76 19.94l42.02 108.49 14.36 2.87 14.2-39.63c9.11-24.95 18.13-49.66 26.09-71.08 6.73-18.29 10.51-19.28 20.85-20.59v-8.21h-65.98v8.21"/></g><g fill="#ffffff"><path transform="matrix(.13333333 0 0 -.13333333 0 1512.4667)" d="m7812.14 6248.56c0-30.36-24.54-54.9-54.91-54.9-30.28 0-54.82 24.54-54.82 54.9 0 30.37 24.54 54.83 54.82 54.83 30.37 0 54.91-24.46 54.91-54.83"/><path transform="matrix(.13333333 0 0 -.13333333 0 1512.4667)" d="m8368.56 6157.28c0-30.36-24.54-54.9-54.9-54.9-30.28 0-54.82 24.54-54.82 54.9 0 30.28 24.54 54.82 54.82 54.82 30.36 0 54.9-24.54 54.9-54.82"/><path transform="matrix(.13333333 0 0 -.13333333 0 1512.4667)" d="m8054.07 10122.7c0-30.4-24.54-54.9-54.91-54.9-30.28 0-54.82 24.5-54.82 54.9 0 30.3 24.54 54.9 54.82 54.9 30.37 0 54.91-24.6 54.91-54.9"/><path transform="matrix(.13333333 0 0 -.13333333 0 1512.4667)" d="m9359.83 9609.04c-1.32-30.28-26.84-53.83-57.2-52.44-30.28 1.15-53.76 26.84-52.44 57.12 1.23 30.2 26.83 53.67 57.03 52.44 30.37-1.23 53.84-26.83 52.61-57.12"/><path transform="matrix(.13333333 0 0 -.13333333 0 1512.4667)" d="m6608 7253.74c21-30.36 31.67-62.78 31.59-96.34-0.08-38.41-12.88-69.59-81.41-117.03l-198.19-141.15-36.43 52.44s202.94 144.52 206.23 146.81c34.96 24.21 49.89 41.94 49.98 69.59 0 17.57-6.41 36.69-19.13 54.99-19.77 28.64-45.21 37.75-67.78 37.83-20.27 0-42.27-14.36-81.25-41.6l-186.37-126.3-35.7 51.45 177.26 120.15c49.33 34.63 88.64 58.34 125.15 58.34 53.27-0.16 92.08-34.71 116.05-69.18"/><path transform="matrix(.13333333 0 0 -.13333333 0 1512.4667)" d="m5974.81 7640.59 377.01 132.13 20.84-57.12-215.67-263.43 272.46 107.84 20.27-55.64-372.49-143.13-20.93 57.12 216.82 263.76-278.04-97.25-20.27 55.72"/><path transform="matrix(.13333333 0 0 -.13333333 0 1512.4667)" d="m5918.44 7940.71 394.58 58.51 9.27-63.19-394.49-58.52-9.36 63.2"/><path transform="matrix(.13333333 0 0 -.13333333 0 1512.4667)" d="m5906.75 8416.42 1.48 66.22 393.75-160.03-2.71-65.73-404.34-120.47 0.33 66.23 327.85 91.91-316.36 121.87"/><path transform="matrix(.13333333 0 0 -.13333333 0 1512.4667)" d="m6195.85 9187.94c23.39 42.51 40.05 58.59 64.75 58.51 9.19 0 20.77-2.3 32.34-8.7 15.01-8.29 26.42-21.99 30.69-36.84 1.64-5.75 2.38-11.49 2.21-17.24-0.08-23.72-13.29-47.6-27.16-72.46l-8.21-14.77-112.34 60.39zm70.91 120.88c-56.3-0.08-82.48-32.41-118.42-97.41l-46.78-83.87 351.32-190.72 30.37 54.9-146.08 79.69 8.62 15.75c24.45 44.48 32.99 51.13 95.69 45.88l113.82-10.02 32.5 58.93-131.06 11.16c-26.42 2.38-47.19 4.35-64.01-0.49-5.58-1.56-12.39-5.09-18.88-9.68 1.48 7.13 4.19 14.11 4.27 21.33 0.08 11.24-1.48 22.4-4.92 32.5-7.64 23.39-24.29 42.43-49.57 56.38-18.88 10.34-37.75 15.75-56.87 15.67"/><path transform="matrix(.13333333 0 0 -.13333333 0 1512.4667)" d="m6703.34 9872.52 50.8 38.74 242.01-317.02-50.72-38.73-242.09 317.01"/><path transform="matrix(.13333333 0 0 -.13333333 0 1512.4667)" d="m6922.4 10028 258.02 134.3 25.11-48.4-100.37-52.2 158.96-305.47-56.62-29.46-159.05 305.33-100.94-52.49-25.11 48.39"/><path transform="matrix(.13333333 0 0 -.13333333 0 1512.4667)" d="m7566.04 10283.7 67.3 18.8-54.16-266.9 43.82-151.5-60.81-17.56-42.84 150.36-189.33 197.7 65.49 18.9 136.31-141.9 34.22 192.1"/><path transform="matrix(.13333333 0 0 -.13333333 0 1512.4667)" d="m8783.14 9738.38 202.54 343.62 190.56-112.2-27.66-47.11-136.06 80.31-56.05-95.16 128.1-75.42-27.08-46.03-128.11 75.5-91.67-155.69-54.57 32.18"/><path transform="matrix(.13333333 0 0 -.13333333 0 1512.4667)" d="m9808.07 8849.82 145.18 173.81 22.73-68.85-108.24-123.67 160.66-36.11 21.4-64.83-219.81 53.18-156.09-187.12-22.25 67.71 117.77 137.3-176.11 40.21-21.42 65.41 236.18-57.04"/><path transform="matrix(.13333333 0 0 -.13333333 0 1512.4667)" d="m9694 8457.9 397.7 32.42 17.9-220.52-54.4-4.43-12.8 157.49-110-9.03 11.98-148.21-53.09-4.27-12.15 148.13-179.97-14.69-5.17 63.11"/><path transform="matrix(.13333333 0 0 -.13333333 0 1512.4667)" d="m9901.26 7798.32c-77.64 0-168.4 42.35-168.4 120.72 0 28.23 9.77 66.4 44.89 91.92 23.64 17.15 54.49 26.34 88.96 26.34 39.56 0 110.87-11.16 148.29-62.7 12.9-17.81 19.5-38.49 19.5-60.57 0-30.52-12.5-66.8-45.35-90.51-23.14-16.83-53.59-25.2-87.89-25.2m-31.43 303.97c-46.04 0-88.47-12.47-121.87-36.76-60.32-43.66-71.23-106.28-71.23-142.96 0-134.84 126.71-188.75 221.82-188.75 45.79-0.08 87.57 12.39 120.55 36.19 67.1 48.66 70.9 121.87 70.9 145.42 0 117.6-108.23 186.86-220.17 186.86"/><path transform="matrix(.13333333 0 0 -.13333333 0 1512.4667)" d="m9576.22 9105.1c-35.78 0-68.2 15.02-90.44 50.15-11.4 17.97-16.9 37.33-16.9 56.78-0.25 45.14 28.31 91.42 80.59 124.66 34.63 22 68.6 32.75 99.05 32.66 38.49 0 69.76-16.9 90.68-49.81 12.31-19.45 17.89-40.13 17.89-60.81 0-44.07-27.82-87.15-78.37-119.24-35.54-22.49-71.15-34.39-102.5-34.39m62.12 324.98c-40.29 0-83.29-12.8-124.65-39.06-76.65-48.58-104.56-118.25-104.56-169.06 0-32.9 9.11-65.16 27.82-94.78 42.6-67.21 106.44-83.63 149.53-83.38 41.19 0.16 84.61 13.79 125.56 39.8 49.32 31.27 104.22 89.45 104.22 168.15 0 32.67-9.27 64.84-28.15 94.71-34.96 54.98-89.61 83.62-149.77 83.62"/><path transform="matrix(.13333333 0 0 -.13333333 0 1512.4667)" d="m8529.55 9895.86c-28.81 0-70.58 14.12-93.88 56.71-11.25 20.6-16.34 45.71-16.34 71.53 0 71.5 47.69 171.6 134.51 171.6 48.75 0 110.05-36.3 110.05-126.4 0-57.6-40.38-173.44-134.34-173.44m20.52 355.74c-83.05 0-155.44-55.9-184.65-155.4-6.49-22-10.59-44-10.59-65.2 0-39.78 6.65-71.29 22.98-101.16 36.93-67.46 104.39-90.44 155.84-90.44 28.89 0 56.87 6.65 82.48 20.6 67.29 36.85 111.69 122.19 111.69 203.9 0 35.6-6.89 69-22.57 97.5-32.41 58.9-92.32 90.2-155.18 90.2"/><path transform="matrix(.13333333 0 0 -.13333333 0 1512.4667)" d="m6340.73 8805.02 53.59-15.18-60.48-219.04-385.96 105.87 65.9 221.58 52.44-14.78-48.42-159.78 106.36-29.21 41.11 145.17 51.38-14.6-40.95-144.69 120.39-32.99 44.64 157.65"/><path transform="matrix(.13333333 0 0 -.13333333 0 1512.4667)" d="m6441.93 9638.38c55.47 62.13 112.1 57.86 112.1 57.86l9.68-52.6s-43.66-1.48-77.88-39.81c-14.93-16.66-22.4-34.05-22.4-49.81 0-12.88 5-24.21 15.18-33.23 27.66-24.62 74.76 2.7 104.39 14.6 22.73 9.36 54.98 22.49 87.32 22.49 24.12 0 48.99-6.82 71.72-27.17 26.51-23.71 39.89-53.5 39.89-84.69 0-33.89-13.13-64.09-39.64-93.72-50.88-56.95-119.32-63.19-119.32-63.19l-13.55 53.34c40.3 9.36 70.83 24.87 89.29 45.63 14.61 16.33 21.75 34.55 21.75 50.55 0 15.03-6.32 29.14-18.63 40.14-9.93 8.86-22.08 12.06-35.29 11.81-25.68 0-56.38-14.68-81.65-25.19-48.5-20.11-99.55-36.19-145.34 4.68-23.31 20.84-35.7 46.94-35.7 75.99 0 30.69 12.14 63.35 38.08 92.32"/><path transform="matrix(.13333333 0 0 -.13333333 0 1512.4667)" d="m9823.6 7349.56c-18.05 0-48.58 10.34-60.07 40.04-2.87 7.56-4.11 15.18-4.11 22.98 0.25 21.83 10.59 44.48 21.18 68.36l6.81 15.43 115.05-51.7-12.71-30.77c-21.51-48.75-35.46-64.26-66.15-64.34m-235.53 236.51 150.75-68.19-7.38-16.99c-20.6-46.45-28.39-53.92-91.34-54.25l-114.15-0.08-27.25-61.55 131.63 0.41c26.68 0 47.44 0 63.61 6.24 5.25 2.05 11.32 5.33 16.82 9.76-0.25-3.36-1.56-6.64-1.56-10.09-0.16-14.61 2.63-29.14 8.04-41.85 18.14-42.19 67.21-62.78 103.24-62.7 63.36 0.08 87.65 38.07 118.51 107.91 1.23 2.55 37.09 85.43 37.09 85.43l-362.73 163.39-25.28-57.44"/><path transform="matrix(.13333333 0 0 -.13333333 0 1512.4667)" d="m9520.16 6908.43c-31.68 0-61.47 12.23-92.41 36.93-31.43 25.11-64.66 64.18-64.66 114.08 0 34.54 18.79 67.62 47.76 103.81l26.34 33.15 227.74-181.77-17.24-21.83c-42.34-53.1-71.23-84.37-127.53-84.37m-142.14 300.36c-41.36-51.86-72.71-98.15-72.71-157.97 0-50.72 23.06-108.49 81.33-155.02 38.65-30.94 82.39-47.6 127.53-47.6 55.48 0 100.04 16.66 169.06 103.24l63.02 79.19-311.68 248.9-56.55-70.74"/><path transform="matrix(.13333333 0 0 -.13333333 0 1512.4667)" d="m9340.91 6449.96c-371.18-131.38-717.75-122.27-1013.35-56.21 9.77 131.88 64.34 273.04 147.8 299.29 651.03 201.88 1125.21 808.76 1125.21 1524.21 0 879.82-717.26 1595.6-1598.65 1595.6-881.55 0-1598.73-715.78-1598.73-1595.6 0-489.52 228.72-954.51 613.53-1255.93-91.42-40.21-169.39-105.13-225.77-186.05-29.21 19.94-57.28 40.54-83.29 61.88l-14.53-14.52c17.32-21.02 44.4-48.84 76.82-79.86-47.36-79.76-74.77-172.58-74.77-271.8 0-15.51 0.99-30.61 2.3-45.79-572.74 417.39-913.07 1080.97-913.07 1792.07 0 1222.61 994.81 2217.35 2217.51 2217.35s2217.38-994.74 2217.38-2217.35c0-700.43-320.09-1343.74-878.39-1767.29m-1286.38-523.33c-306.44 0-688.79 104.06-951.56 259.09-79.6 47.02-174.56 134.33-174.56 283.69 0 40.22 7.97 78.7 21.92 114.16 98.07-81.17 199.42-157.16 263.02-191.87 14.61-8.13 23.06-11.98 40.13-11.98 40.7 0 73.86 33.23 73.86 74.1 0 31.35-16.91 56.79-45.06 69.02-54.32 23.8-168.15 70.82-290.59 134.26 56.71 74.76 145.83 123.26 246.36 123.26 45.96 0 90.19-9.85 131.47-29.3l83.95-48.91c267.05-163.06 953.94-581.35 1783.3-351.57-314.72-284.03-702.49-423.95-1182.24-423.95m262.53-186.7c-84.2 0-153.3-59.66-153.3-151.24 0-89.46 70-151.01 153.3-151.01 12.72 0 24.86 2.06 36.51 5.18-17.64-126.8-165.2-268.52-355.51-332.21-188.75 63.11-336.38 205.99-355.83 332.04 11.57-2.95 23.63-5.01 36.27-5.01 90.93 0 153.3 63.61 153.3 151.01 0 83.54-65.49 149.03-150.02 150.91 25.77 47.11 50.55 97.17 68.77 151.01 104.8-18.23 207.96-28.15 303.98-28.15 78.53 0 154.94 4.18 229.62 11.73 9.84-43.16 24.62-88.38 41.85-135.08-2.95 0.17-5.91 0.82-8.94 0.82m-1083.85 1202.92c157.65 0 305.12-80.83 391.62-210.41-75.75 19.2-150.1 44.14-222.73 75.16l-0.16-0.4-2.38 1.23c-50.72 23.96-105.05 36.11-161.51 36.11-125.56 0-236.68-61.63-305.37-155.77-28.88 15.93-57.77 32.83-86.08 50.39 85.02 122.86 226.5 203.69 386.61 203.69m624.03-314.56c-19.53-14.44-35.13-31.84-46.29-50.88-57.85 27.91-130.48 64.18-178 90.77 67.3-14.85 155.19-33.73 224.29-39.89m485.26 30.04c-45.88-65.49-73.21-156.58-81.25-248.74-145.01 37.34-276.48 87.56-391.13 139.84 21.75 42.18 84.2 72.13 131.8 72.13 116.95 0 230.69 12.97 340.58 36.77m-340.58 27.33c-97.9 0-194.41 9.44-288.87 27.49-91.18 178.82-277.96 293.79-479.84 293.79-49.57 0-97.41-7.22-143.04-19.77-388.01 288.21-619.36 746.79-619.36 1230.08 0 844.46 686.82 1531.42 1531.11 1531.42 844.21 0 1531.11-686.96 1531.11-1531.42 0-844.54-686.9-1531.59-1531.11-1531.59m-768.71-686.48c-259.49 0-470.4 211.65-470.4 471.79 0 81.58 20.59 158.23 57.11 225.19 24.13-21.91 50.06-44.81 76.98-67.78-22.89-48.42-36.03-102.17-36.03-158.97 0-141.56 71.4-258.5 206.4-338.19 77.55-45.71 165.36-86.98 258.34-122.93-30.2-5.99-61.13-9.11-92.4-9.11m3053.69 2218.07c0 1257.98-1025.02 2281.55-2284.98 2281.55s-2285.05-1023.57-2285.05-2281.55c0-754.76 372.58-1458.14 997.02-1884.47 61.47-228.64 270.66-397.69 519.32-397.69 67.21 0 132.45 12.63 194.41 36.6 83.63-27.66 169.96-50.47 256.05-68.12-24.13-69.34-59.66-135.08-93.39-191.87 0 0 0.74 0.17 1.89 0.41-0.58-0.41-1.32-0.74-1.97-1.15l47.68-47.6c12.06 6.57 25.85 10.76 40.62 10.76 47.02 0 85.27-38.33 85.27-85.43 0-46.86-38.25-85.19-85.27-85.19-41.12 0-77.14 26.26-96.02 54.41 0 0-11.08-38.32-11.08-88.96-0.33-163.88 178.66-351.07 426.66-430.02 247.93 77.14 426.75 265.73 426.67 429.78 0 56.46-11.08 89.2-11.08 89.2-19.04-22.89-49.98-54.41-96.59-54.41-47.03 0-85.27 38.33-85.27 85.19 0 47.1 38.24 85.43 85.27 85.43 16.49 0 31.75-5.01 44.8-13.05l46.21 46.12c1.15-0.16 1.72-0.41 1.72-0.41-26.1 62.45-45.14 119.9-58.18 175.05 410.9 55.39 757.63 229.2 1033.21 518.98l-0.25 0.33c573.48 435.68 902.33 1096.72 902.33 1816.11"/></g><g fill="#002147"><path transform="matrix(.13333333 0 0 -.13333333 0 1512.4667)" d="m12307 86.8984h11172.5v11174.602h-11172.5zm11255.6-81.99606h-11338.6v11338.598h11338.6v-11338.598"/><path transform="matrix(.13333333 0 0 -.13333333 0 1512.4667)" d="m13943 3067.3c-59.8-30.92-191.8-61.87-358.9-61.87-441.5 0-709.7 276.45-709.7 699.35 0 457.99 317.7 734.43 742.7 734.43 167.1 0 286.7-35.07 338.3-61.89l-55.7-202.17c-66 28.86-156.8 53.63-272.3 53.63-282.6 0-486.9-177.42-486.9-511.62 0-305.33 179.5-501.3 484.8-501.3 103.2 0 210.5 20.62 276.5 51.57l41.2-200.13"/><path transform="matrix(.13333333 0 0 -.13333333 0 1512.4667)" d="m14302.1 3715.1c0-282.63 142.3-507.5 385.8-507.5 245.5 0 383.7 226.93 383.7 517.8 0 262-130 509.56-383.7 509.56-251.7 0-385.8-233.11-385.8-519.86zm1037.7 20.62c0-466.23-282.7-732.35-666.4-732.35-391.9 0-639.5 299.13-639.5 707.61 0 427.02 268.2 728.23 660.1 728.23 406.5 0 645.8-307.39 645.8-703.49"/><path transform="matrix(.13333333 0 0 -.13333333 0 1512.4667)" d="m16732.3 3593.37c-8.2 179.48-18.5 396.09-16.5 583.84h-6.2c-45.4-169.16-103.1-356.91-165-532.25l-202.2-602.4h-196l-185.6 594.14c-53.7 177.42-103.2 367.21-140.3 540.51h-4.2c-6.1-181.54-14.4-402.3-24.7-592.08l-31-559.08h-237.2l92.8 1390.46h334.3l181.5-559.08c49.5-162.98 92.8-328.02 127.9-482.73h6.2c37.1 150.59 84.6 321.83 138.2 484.79l191.9 557.02h330l80.5-1390.46h-247.6l-26.8 567.32"/><path transform="matrix(.13333333 0 0 -.13333333 0 1512.4667)" d="m17516.3 3750.17c31-8.27 72.2-10.33 123.8-10.33 189.8 0 305.3 92.85 305.3 255.83 0 154.71-107.2 237.23-282.6 237.23-70.1 0-119.6-6.18-146.5-12.38zm-251.7 647.77c90.8 16.51 216.7 28.89 387.9 28.89 185.7 0 321.8-39.21 410.5-113.47 82.5-68.08 136.2-177.42 136.2-307.39 0-132.03-41.3-241.36-119.7-315.64-101.1-101.08-259.9-148.53-439.4-148.53-47.4 0-90.8 2.06-123.8 8.26v-524.01h-251.7v1371.89"/><path transform="matrix(.13333333 0 0 -.13333333 0 1512.4667)" d="m18669.6 4416.51v-810.76c0-272.3 113.4-398.15 284.7-398.15 183.6 0 292.9 125.85 292.9 398.15v810.76h253.7v-794.25c0-429.11-220.7-618.89-554.9-618.89-321.8 0-530.2 179.48-530.2 616.83v796.31h253.8"/><path transform="matrix(.13333333 0 0 -.13333333 0 1512.4667)" d="m20058 4204.01h-396.1v212.5h1050.1v-212.5h-400.3v-1177.96h-253.7v1177.96"/><path transform="matrix(.13333333 0 0 -.13333333 0 1512.4667)" d="m21652.7 3642.88h-524v-408.46h585.9v-208.37h-839.6v1390.46h808.7v-208.35h-555v-358.97h524v-206.31"/><path transform="matrix(.13333333 0 0 -.13333333 0 1512.4667)" d="m22189.1 3783.17h150.6c171.3 0 278.5 90.77 278.5 229 0 152.66-107.2 222.79-272.3 222.79-80.4 0-132-6.18-156.8-12.38zm-251.7 614.77c94.9 16.51 237.3 28.89 383.8 28.89 200.1 0 336.2-33.01 429.1-111.41 76.3-63.95 119.6-160.92 119.6-278.5 0-179.49-121.7-301.2-251.7-348.65v-6.18c99-37.13 158.9-134.09 193.9-268.18 43.4-173.3 80.5-334.22 109.4-387.86h-262c-20.7 41.25-53.7 154.72-92.8 328.02-39.2 181.55-105.3 239.3-249.7 243.44h-127.9v-571.46h-251.7v1371.89"/><path transform="matrix(.13333333 0 0 -.13333333 0 1512.4667)" d="m12940.4 1460.24c82.6-47.45 206.3-88.72 336.3-88.72 163 0 253.7 76.34 253.7 189.81 0 105.2-70.1 167.1-247.5 231.05-229 82.52-375.5 204.23-375.5 404.34 0 226.93 189.8 400.23 491 400.23 150.6 0 262-33.01 334.2-70.15l-61.9-204.23c-49.5 26.82-146.4 66.01-276.4 66.01-160.9 0-231.1-86.64-231.1-167.1 0-107.28 80.5-156.79 266.2-228.99 241.3-90.76 358.9-212.49 358.9-412.6 0-222.81-169.1-416.69-528.1-416.69-146.5 0-299.1 41.2-375.5 86.6l55.7 210.44"/><path transform="matrix(.13333333 0 0 -.13333333 0 1512.4667)" d="m15013.8 1225c-59.8-30.9-191.9-61.8-359-61.8-441.5 0-709.6 276.42-709.6 699.32 0 457.99 317.7 734.43 742.6 734.43 167.1 0 286.8-35.07 338.4-61.89l-55.7-202.17c-66.1 28.87-156.8 53.63-272.4 53.63-282.6 0-486.8-177.42-486.8-511.62 0-305.33 179.4-501.3 484.8-501.3 103.1 0 210.4 20.63 276.4 51.57l41.3-200.17"/><path transform="matrix(.13333333 0 0 -.13333333 0 1512.4667)" d="m15484.2 2574.25v-1390.45h-253.8v1390.45h253.8"/><path transform="matrix(.13333333 0 0 -.13333333 0 1512.4667)" d="m16552.8 1800.62h-524v-408.45h585.9v-208.37h-839.6v1390.45h808.7v-208.35h-555v-358.97h524v-206.31"/><path transform="matrix(.13333333 0 0 -.13333333 0 1512.4667)" d="m16837.5 1183.8v1390.45h288.9l358.9-596.21c92.9-154.71 173.3-315.63 237.3-466.23h4.1c-16.5 185.67-22.7 365.15-22.7 577.64v484.8h235.2v-1390.45h-262l-363.1 610.64c-88.7 152.66-181.5 323.9-249.6 480.68l-6.2-2.06c10.3-179.49 12.4-363.09 12.4-592.09v-497.17h-233.2"/><path transform="matrix(.13333333 0 0 -.13333333 0 1512.4667)" d="m19228.6 1225c-59.8-30.9-191.8-61.8-359-61.8-441.4 0-709.6 276.42-709.6 699.32 0 457.99 317.7 734.43 742.6 734.43 167.2 0 286.8-35.07 338.4-61.89l-55.7-202.17c-66 28.87-156.8 53.63-272.3 53.63-282.7 0-486.9-177.42-486.9-511.62 0-305.33 179.5-501.3 484.8-501.3 103.1 0 210.4 20.63 276.4 51.57l41.3-200.17"/><path transform="matrix(.13333333 0 0 -.13333333 0 1512.4667)" d="m20223 1800.62h-524v-408.45h585.9v-208.37h-839.6v1390.45h808.7v-208.35h-555v-358.97h524v-206.31"/><path transform="matrix(.13333333 0 0 -.13333333 0 1512.4667)" d="m13103.7 4984.61c20.5-3.74 50.3-4.67 82-4.67 173.3 0 267.4 96.9 267.4 266.49 0.9 148.15-82.9 242.24-254.4 242.24-41.9 0-73.6-3.71-95-8.38zm-81.1 555.31c49.4 7.46 108.1 13.05 172.4 13.05 116.5 0 199.4-27.02 254.4-78.27 55.9-51.23 88.5-123.91 88.5-225.48 0-102.5-31.7-186.35-90.4-244.13-58.7-58.68-155.6-90.38-277.7-90.38-57.7 0-106.2 2.81-147.2 7.46v617.75"/><path transform="matrix(.13333333 0 0 -.13333333 0 1512.4667)" d="m13968.4 5214.75h-244.1v-226.42h272.1v-68.02h-353.2v628h339.2v-68.02h-258.1v-198.47h244.1v-67.07"/><path transform="matrix(.13333333 0 0 -.13333333 0 1512.4667)" d="m14182.8 5238.05c17.7-4.67 40-6.53 67-6.53 97.9 0 157.5 47.51 157.5 134.17 0 82.93-58.7 122.98-148.1 122.98-35.4 0-62.5-2.78-76.4-6.52zm-81.1 302.8c39.1 6.53 90.4 12.12 155.6 12.12 80.1 0 138.8-18.64 176.1-52.17 34.5-29.82 55-75.47 55-131.39 0-56.82-16.8-101.55-48.5-134.17-42.8-45.66-112.7-68.95-191.9-68.95-24.2 0-46.6 0.93-65.2 5.6v-251.58h-81.1v620.54"/><path transform="matrix(.13333333 0 0 -.13333333 0 1512.4667)" d="m14826.7 5181.2-61.6 180.76c-13.9 41-23.2 78.27-32.6 114.61h-1.8c-9.3-37.27-19.6-75.48-31.7-113.68l-61.5-181.69zm-206-63.37-65.2-197.52h-83.9l213.4 628h97.9l214.3-628h-86.7l-67.1 197.52h-222.7"/><path transform="matrix(.13333333 0 0 -.13333333 0 1512.4667)" d="m15170.5 5253.88h83c86.6 0 141.6 47.51 141.6 119.27 0 81.06-58.7 116.45-144.4 117.38-39.2 0-67.1-3.71-80.2-7.43zm-81 286.04c41 8.39 99.7 13.05 155.6 13.05 86.6 0 142.5-15.83 181.7-51.25 31.6-27.95 49.3-70.82 49.3-119.26 0-82.92-52.1-137.89-118.3-160.27v-2.79c48.5-16.77 77.4-61.49 92.3-126.72 20.5-87.59 35.4-148.15 48.4-172.37h-83.8c-10.3 17.7-24.3 71.75-42 150.01-18.6 86.66-52.2 119.26-125.8 122.05h-76.4v-272.06h-81v619.61"/><path transform="matrix(.13333333 0 0 -.13333333 0 1512.4667)" d="m15718.5 5479.36h-191v68.95h464.9v-68.95h-191.9v-559.05h-82v559.05"/><path transform="matrix(.13333333 0 0 -.13333333 0 1512.4667)" d="m16591.6 5196.11c-4.7 87.59-10.3 192.87-9.4 271.13h-2.8c-21.4-73.59-47.5-151.87-79.2-238.53l-110.8-304.68h-61.5l-101.6 299.11c-29.8 88.5-55 169.56-72.7 244.1h-1.8c-1.9-78.26-6.6-183.54-12.1-277.66l-16.8-269.27h-77.4l43.8 628h103.5l107.1-303.74c26.1-77.35 47.5-146.29 63.4-211.52h2.8c15.8 63.37 38.2 132.31 66.1 211.52l111.8 303.74h103.5l39.1-628h-79.2l-15.8 275.8"/><path transform="matrix(.13333333 0 0 -.13333333 0 1512.4667)" d="m17136.7 5214.75h-244.1v-226.42h272.1v-68.02h-353.2v628h339.2v-68.02h-258.1v-198.47h244.1v-67.07"/><path transform="matrix(.13333333 0 0 -.13333333 0 1512.4667)" d="m17270 4920.31v628h88.5l201.3-317.72c46.6-73.61 82.9-139.77 112.7-204.07l1.9 0.93c-7.5 83.88-9.3 160.28-9.3 258.11v262.75h76.4v-628h-82l-199.4 318.67c-43.8 69.87-85.8 141.62-117.4 209.64l-2.8-0.93c4.6-79.21 6.5-154.68 6.5-259.03v-268.35h-76.4"/><path transform="matrix(.13333333 0 0 -.13333333 0 1512.4667)" d="m18002.4 5479.36h-191v68.95h465v-68.95h-192v-559.05h-82v559.05"/><path transform="matrix(.13333333 0 0 -.13333333 0 1512.4667)" d="m18593.2 5230.59c0-134.17 72.7-254.37 200.4-254.37 128.5 0 201.2 118.32 201.2 260.88 0 124.86-65.2 255.31-200.3 255.31-134.2 0-201.3-123.93-201.3-261.82zm487.3 10.24c0-216.16-131.3-330.76-291.6-330.76-165.9 0-282.3 128.57-282.3 318.64 0 199.4 123.9 329.86 291.6 329.86 171.5 0 282.3-131.39 282.3-317.74"/><path transform="matrix(.13333333 0 0 -.13333333 0 1512.4667)" d="m19185.9 5548.31h338.2v-68.02h-257.2v-208.71h237.6v-67.09h-237.6v-284.18h-81v628"/></g></g></svg>
