<?xml version="1.0" standalone="no"?>
<!DOCTYPE svg PUBLIC "-//W3C//DTD SVG 20010904//EN"
 "http://www.w3.org/TR/2001/REC-SVG-20010904/DTD/svg10.dtd">
<svg version="1.0" xmlns="http://www.w3.org/2000/svg"
 width="320.000000pt" height="320.000000pt" viewBox="0 0 320.000000 320.000000"
 preserveAspectRatio="xMidYMid meet">

<g transform="translate(0.000000,320.000000) scale(0.100000,-0.100000)"
fill="#000000" stroke="none">
<path d="M1422 3190 c-40 -5 -75 -10 -77 -12 -2 -1 0 -34 4 -71 7 -66 6 -69
-17 -78 -13 -5 -37 -10 -54 -12 -28 -2 -31 1 -49 61 -11 34 -26 62 -33 62 -18
0 -159 -49 -169 -59 -4 -4 1 -31 13 -60 11 -28 20 -56 20 -61 0 -5 -22 -21
-48 -34 l-49 -25 -33 60 c-19 32 -39 59 -46 59 -13 0 -151 -77 -158 -89 -3 -4
11 -31 30 -61 18 -30 34 -58 34 -61 0 -3 -20 -20 -44 -37 l-43 -31 -42 49
c-23 28 -45 50 -49 50 -13 0 -142 -113 -142 -124 0 -6 21 -31 46 -57 l46 -47
-38 -41 -39 -41 -52 40 c-28 22 -55 40 -60 40 -9 -1 -100 -122 -109 -144 -4
-12 10 -24 105 -92 4 -3 -48 -94 -53 -94 -2 0 -28 11 -58 25 -29 14 -58 25
-63 25 -6 0 -30 -38 -53 -86 l-42 -85 65 -30 c36 -16 65 -34 65 -40 0 -7 -5
-29 -12 -50 -13 -44 -18 -45 -98 -24 -30 8 -56 13 -57 11 -9 -8 -35 -177 -30
-189 3 -8 33 -19 67 -26 l61 -12 -3 -52 -3 -52 -75 0 -75 0 0 -95 0 -95 70 -3
c40 -2 73 -8 77 -15 4 -7 8 -31 8 -54 l0 -41 -50 -11 c-28 -6 -58 -11 -65 -11
-9 0 -15 -10 -15 -24 0 -27 28 -167 35 -174 4 -4 67 9 117 24 18 5 33 -20 45
-77 4 -24 0 -27 -56 -48 -34 -12 -61 -28 -61 -35 0 -16 58 -158 69 -169 4 -4
32 4 62 18 30 13 59 25 65 25 9 0 54 -69 54 -83 0 -2 -25 -23 -55 -46 l-55
-42 50 -74 c27 -40 54 -76 60 -80 5 -3 35 13 65 35 62 45 66 45 107 -12 l21
-30 -49 -49 -48 -49 53 -54 c29 -30 64 -60 77 -67 23 -12 27 -10 57 26 18 21
37 45 43 54 10 12 17 10 52 -15 23 -16 42 -34 42 -39 0 -6 -16 -33 -35 -62
-26 -38 -31 -54 -22 -61 40 -32 151 -92 163 -88 7 3 25 27 38 55 14 27 29 52
33 54 14 8 93 -32 93 -47 0 -8 -9 -35 -20 -61 -11 -26 -20 -50 -20 -55 0 -11
170 -72 185 -66 6 2 17 29 24 61 7 31 19 59 26 61 7 3 33 2 57 -3 47 -10 47
-9 34 -99 l-7 -51 63 -7 c35 -4 79 -10 99 -13 l37 -5 7 71 7 71 53 0 52 0 7
-37 c3 -21 6 -53 6 -72 l0 -33 73 7 c39 3 84 8 99 11 l28 6 -6 67 -7 68 48 12
c56 14 58 12 76 -62 6 -27 17 -51 24 -53 13 -5 162 42 178 56 4 4 -1 31 -12
61 -12 30 -21 59 -21 65 0 6 22 20 48 31 l49 21 32 -59 c18 -33 38 -59 44 -59
7 0 47 21 90 46 l77 45 -14 27 c-8 15 -24 41 -35 57 -12 17 -21 33 -21 36 0 3
20 20 44 37 l43 31 39 -49 c22 -27 45 -49 53 -50 7 0 43 29 79 64 l66 64 -47
53 -47 53 36 38 37 37 52 -40 c28 -21 54 -39 58 -39 9 0 117 142 117 154 -1 6
-25 28 -55 49 l-55 38 20 40 c12 22 27 42 34 45 7 3 37 -6 66 -20 30 -14 57
-23 61 -21 8 5 79 153 79 165 0 4 -28 19 -61 34 -57 25 -61 28 -56 54 12 57
26 84 45 78 79 -24 114 -28 122 -16 11 18 41 171 35 180 -3 4 -26 11 -52 14
-89 13 -92 17 -77 95 l7 31 74 0 74 0 -3 93 -3 92 -72 3 -72 3 -7 44 c-3 25
-4 51 -1 58 3 8 32 19 66 26 33 7 62 15 65 19 2 4 -3 47 -12 96 l-16 88 -35
-5 c-20 -3 -53 -9 -73 -13 -34 -6 -38 -4 -48 20 -27 72 -27 72 40 106 71 36
70 32 20 143 l-30 67 -28 -14 c-15 -7 -44 -21 -65 -29 l-37 -16 -25 39 c-14
22 -25 43 -25 48 0 5 25 26 55 47 l55 38 -16 26 c-53 81 -90 130 -100 131 -6
0 -31 -16 -55 -35 -24 -19 -49 -35 -55 -35 -7 0 -26 16 -43 36 l-31 35 44 53
c25 28 42 56 38 61 -4 6 -36 37 -70 70 l-63 60 -48 -54 -48 -55 -41 30 c-23
16 -42 33 -42 38 0 5 14 31 30 58 17 26 30 52 30 57 0 14 -150 93 -165 87 -8
-3 -26 -28 -40 -56 -14 -27 -27 -50 -29 -50 -13 0 -96 42 -96 49 0 4 9 34 20
66 11 32 18 60 17 62 -2 2 -43 16 -91 33 l-87 29 -14 -32 c-8 -18 -17 -45 -20
-60 -9 -36 -17 -39 -71 -31 l-47 7 6 73 7 72 -68 8 c-137 14 -126 19 -135 -63
l-9 -73 -48 0 c-27 0 -52 5 -55 10 -3 6 -9 38 -13 73 -8 71 -4 69 -120 57z
m93 -94 l7 -64 73 -7 c40 -4 78 -5 83 -1 5 3 12 35 15 72 4 37 8 68 9 69 5 4
127 -11 132 -16 3 -2 1 -31 -4 -64 -4 -33 -5 -63 -1 -67 3 -4 37 -14 73 -21
78 -17 77 -17 102 61 10 28 21 52 25 52 14 0 106 -33 115 -41 7 -6 -4 -50 -29
-112 -6 -14 5 -23 59 -47 36 -17 71 -30 78 -30 7 0 26 24 42 53 16 28 30 53
31 55 2 3 104 -54 114 -63 2 -2 -11 -28 -28 -58 -17 -30 -31 -57 -31 -60 0 -9
117 -97 128 -97 5 0 27 23 48 50 21 28 40 50 43 50 3 0 27 -21 53 -47 l47 -47
-45 -53 -45 -53 52 -55 c28 -30 56 -55 61 -55 5 0 29 16 52 35 24 19 47 35 52
35 5 0 26 -25 47 -55 l37 -54 -47 -33 c-26 -18 -52 -36 -57 -40 -11 -7 -3 -25
51 -111 l23 -37 61 31 c34 16 62 29 64 27 4 -4 55 -119 55 -123 0 -2 -15 -8
-32 -14 -18 -6 -47 -20 -65 -30 l-31 -20 20 -68 c11 -37 23 -71 27 -75 3 -4
35 -1 70 8 35 8 66 12 68 10 7 -7 23 -79 23 -107 0 -23 -5 -26 -66 -39 l-67
-13 7 -75 c3 -41 8 -77 11 -80 5 -6 35 -9 98 -11 l47 -1 0 -65 0 -65 -70 0
c-82 0 -81 1 -83 -97 l-2 -67 66 -16 65 -15 -13 -64 c-7 -36 -14 -66 -16 -67
-2 -2 -29 4 -61 12 -32 8 -64 13 -70 11 -11 -4 -61 -145 -54 -152 1 -2 29 -15
61 -29 31 -13 57 -27 57 -30 0 -10 -49 -116 -53 -116 -3 0 -30 11 -61 25 -32
14 -61 23 -66 20 -13 -8 -70 -111 -70 -126 0 -8 23 -29 50 -48 28 -19 50 -38
50 -43 0 -5 -17 -31 -37 -56 -21 -26 -39 -49 -40 -51 -1 -2 -21 9 -43 25 -23
16 -47 33 -55 39 -11 7 -27 -2 -65 -40 -27 -27 -50 -54 -50 -61 0 -6 19 -32
41 -58 l42 -47 -24 -25 c-13 -14 -37 -35 -53 -46 l-28 -21 -40 47 c-22 25 -45
46 -51 46 -7 0 -38 -20 -70 -46 l-58 -45 22 -37 c13 -20 29 -47 36 -58 13 -20
10 -24 -47 -57 l-60 -36 -14 22 c-8 12 -22 39 -32 60 -10 20 -23 37 -29 37
-13 0 -145 -58 -145 -64 0 -1 9 -29 20 -61 11 -32 17 -62 12 -67 -4 -4 -34
-16 -65 -27 -43 -15 -59 -17 -62 -8 -2 7 -10 35 -18 62 -14 49 -15 50 -53 48
-22 -1 -57 -8 -79 -15 -39 -13 -40 -14 -36 -53 8 -97 13 -89 -59 -97 -35 -4
-66 -5 -68 -3 -2 2 -7 33 -9 69 l-6 66 -83 0 -84 0 0 -47 c0 -81 -6 -92 -48
-87 -92 12 -104 15 -99 28 3 7 8 38 12 68 l7 55 -79 15 c-43 9 -81 14 -84 12
-4 -2 -10 -16 -13 -31 -4 -16 -11 -45 -17 -65 l-10 -37 -57 21 c-31 12 -61 25
-65 29 -5 4 1 34 13 68 13 34 21 63 19 65 -11 9 -123 56 -134 56 -8 0 -28 -25
-45 -55 -17 -30 -35 -55 -40 -55 -5 0 -34 15 -64 33 l-54 33 34 54 c19 30 34
58 34 62 0 4 -28 29 -62 54 l-63 46 -46 -53 -46 -53 -40 32 c-72 57 -72 57
-19 111 55 56 55 60 -16 129 l-44 42 -54 -40 c-29 -22 -56 -40 -59 -40 -5 0
-69 91 -79 111 -1 3 22 22 53 42 30 21 55 40 55 43 0 14 -73 134 -81 134 -5 0
-32 -11 -59 -25 -27 -14 -53 -25 -58 -25 -9 0 -65 121 -58 127 2 2 30 14 62
27 33 13 58 27 58 32 -1 5 -9 39 -19 76 -20 76 -20 76 -102 54 -29 -8 -55 -11
-57 -8 -8 15 -27 124 -22 129 3 3 31 11 63 17 67 14 68 17 58 112 l-7 64 -74
0 -74 0 0 71 0 72 75 -6 c72 -6 75 -6 80 16 4 13 5 49 3 82 l-3 59 -58 12
c-32 6 -60 14 -63 17 -9 9 18 137 30 137 6 0 35 -7 65 -15 30 -8 58 -12 62
-10 8 5 52 145 47 150 -2 2 -31 16 -64 31 l-62 29 29 63 28 63 61 -31 c33 -17
65 -28 70 -25 12 7 70 116 70 131 0 6 -22 27 -50 45 -27 19 -50 38 -50 43 0 7
42 65 71 100 5 5 33 -10 64 -33 l57 -43 48 54 c27 29 49 60 50 68 0 8 -19 34
-42 57 l-42 43 34 36 c60 62 67 62 112 10 22 -25 44 -46 50 -46 12 0 127 82
128 90 0 3 -16 30 -34 60 -39 62 -40 61 36 103 l47 27 31 -56 c18 -30 38 -58
45 -60 10 -4 125 45 143 61 1 1 -7 28 -18 60 -11 32 -20 61 -20 65 0 3 24 14
53 25 28 10 57 20 63 22 6 2 19 -24 29 -58 10 -33 25 -63 32 -66 7 -3 36 0 65
7 95 21 90 18 84 58 -3 21 -7 53 -8 72 l-3 35 60 5 c33 3 63 4 67 3 3 -2 10
-32 13 -67z"/>
<path d="M1615 2964 c-9 -9 -14 -22 -11 -29 3 -9 -22 -14 -92 -18 -82 -5 -101
-3 -133 14 -67 33 -119 20 -119 -31 0 -38 -23 -40 -70 -5 -41 30 -64 20 -25
-11 16 -13 27 -25 25 -26 -3 -2 -47 -20 -98 -41 l-94 -37 -28 20 c-42 30 -69
23 -37 -9 10 -10 8 -12 -7 -9 -10 1 -21 -2 -23 -9 -2 -7 8 -13 23 -15 26 -3
24 -6 -36 -45 -36 -24 -62 -43 -57 -44 4 -1 10 -2 15 -3 18 -4 73 -66 70 -80
-6 -30 17 -20 28 12 9 29 12 31 23 18 8 -9 17 -16 22 -16 16 0 9 23 -23 73
-25 39 -28 51 -18 57 20 12 27 5 55 -51 14 -27 29 -49 34 -49 21 0 18 17 -10
66 -17 30 -28 58 -25 63 8 12 76 35 82 28 3 -3 -4 -8 -15 -12 -27 -8 -27 -28
1 -65 25 -34 32 -36 72 -15 15 8 32 12 37 9 24 -15 25 12 3 63 -20 44 -22 58
-12 64 22 14 24 11 43 -51 10 -34 24 -60 32 -60 17 0 16 2 -4 67 -15 47 -15
56 -3 63 25 16 34 6 48 -53 9 -35 19 -57 28 -57 17 0 17 2 -1 70 -8 30 -13 55
-12 56 1 1 14 5 29 9 21 5 29 3 34 -10 4 -10 1 -21 -6 -25 -11 -7 -11 -11 -1
-24 26 -31 43 -19 39 26 -5 69 19 58 29 -13 4 -36 13 -64 21 -67 10 -3 13 11
10 64 l-3 69 48 3 c28 2 47 -1 47 -7 0 -6 -9 -11 -20 -11 -10 0 -24 -9 -30
-20 -14 -26 3 -60 31 -60 11 0 22 -7 25 -15 10 -25 24 -17 24 14 0 36 9 61 22
61 6 0 8 -14 4 -35 -4 -19 -3 -35 2 -35 18 0 33 29 30 57 -2 22 -9 29 -30 31
-47 6 -31 22 22 22 l49 0 -6 -65 c-5 -54 -3 -65 9 -65 12 0 17 15 20 62 3 34
9 63 15 65 12 4 -58 83 -74 83 -6 0 -19 -7 -28 -16z m55 -35 c0 -12 -27 -11
-35 1 -11 17 5 32 21 19 8 -6 14 -15 14 -20z m-318 -10 c17 -9 18 -13 7 -20
-8 -5 -26 -9 -41 -9 -21 0 -28 5 -28 20 0 23 28 27 62 9z m198 -79 c0 -21 -15
-27 -25 -10 -7 12 2 30 16 30 5 0 9 -9 9 -20z m-402 -62 c10 -26 9 -36 -3 -55
-17 -25 -30 -29 -40 -12 -4 6 1 17 11 25 18 14 17 15 -8 9 -33 -6 -39 14 -7
22 14 4 19 12 16 24 -9 32 18 21 31 -13z m-220 -99 c19 -30 -3 -53 -24 -25 -8
11 -14 26 -14 33 0 20 24 15 38 -8z"/>
<path d="M1990 2896 c0 -9 7 -16 16 -16 9 0 14 5 12 12 -6 18 -28 21 -28 4z"/>
<path d="M1840 2889 c0 -5 11 -11 25 -15 16 -4 25 -13 25 -25 0 -21 -16 -26
-22 -7 -2 6 -9 8 -15 5 -16 -10 19 -112 38 -112 13 0 13 5 1 48 -4 15 0 18 19
15 21 -3 24 -7 21 -42 -6 -58 19 -41 36 25 7 30 15 56 17 57 6 6 75 -19 75
-26 0 -4 -5 -14 -11 -22 -8 -11 -12 -12 -16 -2 -8 20 -23 14 -23 -10 0 -41 21
-99 33 -95 13 5 13 10 2 45 -5 18 -2 22 14 22 13 0 26 -13 38 -37 13 -28 25
-39 46 -41 22 -3 27 -8 25 -25 -5 -41 17 -30 47 21 27 49 47 63 59 44 3 -5
-10 -33 -29 -63 -31 -50 -36 -69 -15 -69 5 0 24 25 42 55 l34 56 45 -32 c24
-18 46 -34 48 -36 3 -2 0 -8 -6 -14 -8 -8 -19 -6 -41 10 -39 27 -42 27 -42 -9
0 -31 9 -37 26 -20 5 5 15 6 24 0 12 -8 11 -12 -6 -32 -31 -34 -35 -45 -20
-51 8 -3 27 13 47 40 19 25 42 48 52 52 14 5 8 14 -35 46 -106 82 -225 145
-189 101 10 -12 8 -19 -8 -35 -22 -22 -65 -28 -76 -11 -3 6 5 10 19 10 28 0
49 29 40 55 -15 38 -74 41 -74 4 0 -12 -5 -16 -15 -13 -24 10 -19 44 7 44 13
0 18 4 13 8 -29 26 -275 98 -275 81z m108 -57 c2 -15 -2 -22 -12 -22 -11 0
-16 9 -16 26 0 31 23 28 28 -4z m212 -78 c0 -8 -4 -12 -10 -9 -5 3 -10 10 -10
16 0 5 5 9 10 9 6 0 10 -7 10 -16z"/>
<path d="M1460 2670 c-456 -64 -821 -404 -916 -853 -102 -484 149 -987 601
-1198 180 -84 415 -119 616 -90 467 68 847 454 910 927 74 557 -300 1083 -854
1200 -90 19 -271 26 -357 14z m327 -35 c440 -84 784 -433 853 -867 20 -124 8
-343 -24 -453 -53 -180 -167 -370 -292 -484 -231 -211 -538 -316 -828 -283
-143 17 -233 44 -361 107 -295 145 -500 411 -567 735 -17 79 -19 121 -15 245
6 171 28 268 97 412 146 307 432 528 763 588 99 18 279 18 374 0z"/>
<path d="M1529 2552 c-3 -20 -2 -29 4 -23 5 5 7 19 5 32 -3 20 -5 19 -9 -9z"/>
<path d="M1697 2523 c12 -10 34 -26 48 -36 21 -15 26 -25 23 -55 l-3 -37 -50
0 c-40 0 -50 -4 -53 -18 -6 -29 17 -47 58 -47 49 0 80 35 80 90 0 41 -18 62
-85 99 -27 14 -33 16 -18 4z"/>
<path d="M1265 2504 c4 -16 -5 -34 -35 -69 -58 -66 -54 -127 10 -160 27 -14
34 -14 66 0 30 12 35 19 32 42 -4 34 -32 42 -59 17 -24 -22 -49 -10 -63 30 -8
21 -6 31 12 54 51 63 54 70 42 89 -10 16 -10 16 -5 -3z"/>
<path d="M1465 2498 c-32 -17 -45 -39 -45 -79 0 -51 32 -89 75 -89 31 0 65 21
65 40 0 5 -7 16 -16 24 -11 12 -20 13 -34 6 -30 -16 -50 -12 -59 13 -10 26 3
65 27 83 21 16 14 17 -13 2z"/>
<path d="M1947 2503 c-15 -14 -6 -41 23 -68 23 -22 30 -38 30 -67 0 -50 -25
-64 -65 -38 -35 23 -55 16 -55 -21 0 -32 23 -49 68 -49 37 0 71 36 79 83 5 31
1 40 -37 81 -30 32 -41 52 -37 66 5 21 4 24 -6 13z"/>
<path d="M2182 2368 c-16 -16 -15 -40 3 -64 14 -18 14 -17 3 9 -9 22 -9 33 0
48 14 22 11 24 -6 7z"/>
<path d="M1590 2349 c0 -27 -62 -89 -89 -89 -31 0 -78 26 -91 50 -15 28 -30
25 -30 -5 0 -15 -7 -39 -15 -55 -27 -53 -77 -64 -133 -30 -18 11 -34 20 -36
20 -2 0 -3 -22 -3 -50 2 -41 -2 -54 -25 -76 -28 -28 -60 -34 -116 -20 l-34 8
16 -31 c20 -38 20 -90 1 -118 -17 -25 -74 -44 -105 -36 -26 7 -25 -3 5 -39 50
-60 19 -145 -61 -167 l-29 -8 32 -16 c38 -20 53 -44 53 -87 0 -37 -24 -76 -58
-94 l-25 -13 34 -12 c55 -19 79 -49 79 -97 0 -32 -6 -48 -25 -65 -13 -13 -25
-27 -25 -31 0 -5 20 -8 45 -8 83 0 120 -72 79 -151 -15 -31 -15 -31 8 -22 46
16 97 8 125 -19 22 -22 26 -35 25 -77 l-1 -50 32 19 c48 30 83 26 123 -14 24
-24 34 -43 34 -65 l0 -32 35 36 c27 26 44 35 69 35 40 0 83 -32 101 -74 l13
-30 15 36 c17 41 51 68 85 68 32 0 79 -26 93 -51 9 -17 13 -19 20 -8 5 8 9 24
9 37 0 13 14 37 30 54 27 27 36 30 71 25 22 -3 48 -12 58 -21 26 -24 29 -20
24 27 -8 82 63 140 134 108 14 -7 27 -10 29 -8 2 2 -4 22 -13 46 -15 39 -15
44 0 77 20 41 67 65 112 56 l29 -5 -27 32 c-36 44 -42 72 -22 114 15 32 46 54
95 69 10 3 6 10 -16 21 -38 19 -67 76 -58 112 6 24 56 75 75 75 5 0 9 5 9 10
0 6 -12 10 -28 10 -86 0 -116 107 -50 178 l21 22 -44 0 c-55 0 -84 19 -99 65
-13 38 -7 70 19 99 15 18 15 18 -19 10 -52 -12 -79 -8 -109 14 -35 26 -48 65
-34 102 13 36 13 36 -34 10 -63 -34 -110 -23 -138 30 -8 16 -15 41 -15 56 l0
28 -27 -26 c-34 -31 -66 -48 -91 -48 -28 0 -72 38 -88 77 -16 38 -24 42 -24
12z m43 -64 c43 -43 98 -48 141 -14 15 12 28 20 30 18 1 -2 8 -19 16 -37 7
-18 22 -39 34 -47 24 -17 89 -20 117 -5 17 10 19 7 19 -24 0 -53 43 -97 101
-103 l46 -5 -4 -42 c-6 -57 23 -101 76 -117 40 -12 40 -12 26 -40 -8 -15 -15
-41 -15 -56 0 -28 33 -93 47 -93 5 0 14 -4 22 -9 12 -8 9 -15 -12 -41 -16 -19
-27 -44 -27 -61 0 -35 23 -84 46 -97 14 -8 11 -12 -18 -30 -56 -35 -73 -94
-43 -151 14 -29 14 -29 -19 -35 -54 -10 -81 -48 -81 -112 l0 -54 -42 0 c-59 0
-93 -31 -100 -91 l-5 -46 -37 13 c-62 22 -111 -1 -137 -63 l-14 -33 -33 20
c-17 11 -49 20 -71 20 -31 0 -45 -7 -71 -34 -30 -32 -32 -33 -43 -15 -32 51
-113 67 -161 32 l-26 -20 -18 37 c-21 46 -61 64 -121 58 l-44 -5 -6 37 c-8 52
-54 90 -107 90 l-40 0 6 43 c8 58 -19 102 -75 118 -22 7 -40 13 -40 14 0 1 7
16 16 34 10 21 14 44 10 64 -7 34 -52 87 -74 87 -9 0 -6 10 12 30 34 41 42 89
22 128 -9 17 -23 35 -32 40 -14 8 -12 12 15 28 58 34 78 129 35 165 -13 10 -8
15 33 28 64 21 93 70 77 129 l-10 39 43 -5 c38 -4 46 -1 78 31 27 27 35 43 35
71 0 34 1 35 26 26 70 -27 137 4 150 69 l6 29 35 -24 c20 -13 49 -24 65 -24
39 0 85 25 93 50 3 11 8 20 10 20 2 0 19 -16 38 -35z"/>
<path d="M1441 2195 c-120 -34 -236 -109 -316 -205 -157 -188 -184 -461 -68
-682 154 -294 519 -410 822 -261 142 70 268 222 315 381 88 300 -75 627 -369
744 -72 28 -92 32 -205 35 -90 2 -140 -1 -179 -12z m298 -10 c191 -45 366
-202 431 -388 31 -87 38 -258 15 -347 -52 -199 -201 -358 -402 -427 -98 -33
-243 -37 -338 -9 -266 78 -445 312 -445 581 0 171 53 297 175 421 124 126 251
182 420 183 44 0 109 -6 144 -14z"/>
<path d="M1582 2163 c-4 -10 -5 -34 -1 -53 7 -40 11 -32 11 23 0 40 19 51 37
20 6 -12 5 -20 -6 -28 -12 -9 -11 -13 6 -29 18 -16 21 -17 21 -3 0 9 5 19 12
23 8 5 9 2 5 -9 -3 -10 -2 -17 3 -17 19 0 10 28 -19 59 -33 35 -56 39 -69 14z"/>
<path d="M1484 2124 c9 -8 16 -22 16 -30 0 -8 4 -14 8 -14 5 0 7 14 4 30 -3
22 -10 30 -24 30 -18 0 -18 -1 -4 -16z"/>
<path d="M1704 2114 c-2 -18 2 -24 12 -20 9 4 14 -2 15 -17 0 -17 3 -14 13 13
8 19 11 37 8 40 -2 3 -7 -1 -9 -7 -6 -16 -24 -17 -20 -2 1 6 -2 13 -8 15 -5 2
-11 -8 -11 -22z"/>
<path d="M1777 2133 c-3 -5 -7 -24 -11 -43 l-5 -35 16 38 c16 37 32 44 41 17
3 -7 0 -10 -7 -6 -7 5 -11 -2 -11 -18 0 -14 5 -26 11 -26 6 0 9 -7 5 -15 -3
-8 -1 -15 4 -15 6 0 10 5 10 12 0 6 7 20 17 30 9 10 12 18 6 18 -5 0 -15 11
-21 25 -11 24 -45 34 -55 18z m58 -53 c-3 -5 -10 -10 -16 -10 -5 0 -9 5 -9 10
0 6 7 10 16 10 8 0 12 -4 9 -10z"/>
<path d="M1374 2102 c-8 -5 -5 -16 8 -37 18 -28 19 -28 13 -5 -3 14 -7 31 -7
38 -1 6 -2 12 -2 12 -1 0 -6 -4 -12 -8z"/>
<path d="M1460 2100 c0 -5 5 -10 10 -10 6 0 10 5 10 10 0 6 -4 10 -10 10 -5 0
-10 -4 -10 -10z"/>
<path d="M1312 2070 c-18 -11 -41 -20 -51 -20 -11 0 -18 -7 -17 -16 0 -9 -5
-19 -13 -22 -10 -3 -12 0 -8 12 4 10 3 15 -3 11 -17 -11 -11 -30 20 -60 32
-30 42 -25 13 7 -13 14 -14 21 -5 30 9 9 12 8 12 -5 0 -13 7 -17 30 -15 35 3
35 2 14 33 -14 22 -14 24 5 34 28 15 36 14 21 -4 -7 -9 -10 -19 -6 -22 4 -4
11 -1 17 7 8 13 10 13 18 0 6 -8 12 -12 15 -9 3 3 -3 17 -12 32 l-18 26 -32
-19z m-22 -56 c0 -8 -4 -14 -9 -14 -11 0 -22 26 -14 34 9 9 23 -3 23 -20z"/>
<path d="M1920 2035 c14 -17 13 -18 -2 -12 -15 5 -18 1 -17 -26 1 -18 3 -24 6
-14 2 9 8 17 13 17 14 0 21 -18 10 -25 -5 -3 -10 -11 -10 -17 0 -6 11 -1 25
12 33 31 45 17 14 -18 l-24 -27 27 24 c30 27 49 24 22 -3 -15 -15 -15 -18 -1
-34 9 -10 20 -27 24 -39 8 -22 9 -22 35 -5 l27 17 -21 25 c-11 14 -17 19 -13
13 8 -17 -41 -18 -51 -1 -5 7 -2 9 9 5 11 -4 14 -2 10 9 -4 10 0 12 13 8 23
-9 -37 58 -81 89 -26 19 -28 19 -15 2z m31 -28 c-1 -12 -15 -9 -19 4 -3 6 1
10 8 8 6 -3 11 -8 11 -12z m94 -117 c-3 -5 -14 -10 -23 -10 -15 0 -15 2 -2 10
20 13 33 13 25 0z"/>
<path d="M1850 1946 c0 -2 8 -10 18 -17 15 -13 16 -12 3 4 -13 16 -21 21 -21
13z"/>
<path d="M1156 1933 c-3 -3 2 -12 12 -20 16 -13 15 -14 -5 -10 -13 3 -26 1
-29 -4 -3 -5 2 -9 10 -9 9 0 16 -6 16 -12 1 -8 6 -6 14 5 8 10 20 15 30 11 24
-9 19 0 -13 24 -16 11 -31 18 -35 15z"/>
<path d="M1525 1877 c3 -15 8 -48 12 -75 5 -43 27 -102 38 -102 8 0 -8 70 -31
137 -13 37 -22 56 -19 40z"/>
<path d="M1589 1835 c-5 -83 -1 -135 10 -135 11 0 13 127 2 170 -7 31 -8 28
-12 -35z"/>
<path d="M1653 1822 c-36 -110 -41 -154 -12 -100 12 22 42 159 36 164 -2 2
-12 -27 -24 -64z"/>
<path d="M1116 1865 c-3 -8 0 -14 7 -12 7 1 11 -2 10 -8 -3 -19 22 -33 35 -19
9 10 6 17 -17 33 -24 18 -30 19 -35 6z"/>
<path d="M1475 1810 c18 -39 41 -82 49 -95 9 -14 12 -25 7 -25 -6 0 -14 6 -18
13 -4 8 -39 43 -78 78 l-70 64 54 -65 c30 -36 65 -74 78 -86 13 -11 20 -23 17
-27 -4 -4 -14 -1 -23 7 -17 15 -171 98 -171 92 0 -7 157 -106 168 -106 7 0 12
-5 12 -11 0 -7 -8 -9 -22 -4 -36 10 -142 34 -153 34 -16 -1 96 -40 137 -49 32
-6 37 -4 47 16 6 13 19 29 30 35 13 9 16 17 11 28 -19 36 -102 171 -106 171
-2 0 12 -32 31 -70z"/>
<path d="M1710 1803 c-56 -84 -70 -110 -63 -117 3 -3 13 5 23 17 17 22 93 167
87 167 -1 0 -23 -30 -47 -67z"/>
<path d="M2070 1863 c0 -7 -7 -13 -15 -13 -8 0 -15 -5 -15 -10 0 -6 11 -8 26
-4 19 5 25 4 20 -5 -4 -6 -10 -9 -14 -7 -4 2 -13 -2 -20 -10 -7 -8 -11 -14 -8
-14 11 0 56 24 56 30 0 12 -29 45 -30 33z"/>
<path d="M1100 1830 c0 -6 7 -19 16 -27 14 -15 16 -14 12 7 -3 24 -28 41 -28
20z"/>
<path d="M1767 1772 c-37 -31 -74 -68 -83 -81 -16 -23 -16 -23 7 -9 23 12 157
148 147 148 -2 0 -34 -26 -71 -58z"/>
<path d="M1799 1726 c-92 -45 -120 -68 -105 -87 7 -9 21 -12 41 -9 36 7 177
51 173 55 -4 4 -160 -30 -181 -40 -10 -4 -21 -5 -24 -1 -3 3 3 9 13 13 31 11
176 110 152 102 -2 0 -33 -15 -69 -33z"/>
<path d="M1077 1673 c-3 -5 -2 -15 4 -23 12 -20 11 -67 -1 -90 -7 -13 -7 -21
0 -25 5 -3 10 0 10 7 0 10 2 10 9 -1 5 -8 11 -9 15 -3 3 6 2 13 -4 17 -13 8
-13 88 1 102 8 8 8 13 0 17 -6 4 -11 1 -11 -6 0 -10 -2 -10 -9 1 -5 7 -11 9
-14 4z"/>
<path d="M2095 1605 c0 -40 3 -68 8 -62 5 9 9 9 15 0 4 -6 7 22 7 62 0 40 -3
68 -7 62 -6 -9 -10 -9 -15 0 -5 6 -8 -22 -8 -62z"/>
<path d="M1728 1613 c-16 -2 -28 -8 -28 -14 0 -8 210 -3 219 7 2 2 -28 4 -67
4 -38 0 -76 2 -84 3 -7 2 -25 2 -40 0z"/>
<path d="M1325 1600 c-13 -6 12 -9 73 -9 59 -1 91 -5 87 -11 -3 -5 -16 -10
-28 -10 -19 0 -161 -48 -147 -49 8 -1 143 27 169 35 17 5 22 4 17 -4 -4 -7
-11 -12 -17 -12 -9 0 -122 -73 -144 -92 -5 -5 24 7 65 26 94 45 110 61 103
104 l-5 32 -77 -1 c-42 0 -85 -4 -96 -9z"/>
<path d="M1692 1564 c-8 -14 -5 -21 12 -34 21 -16 156 -82 156 -76 0 6 -112
77 -136 86 -13 5 -24 14 -24 20 0 8 6 8 19 0 21 -10 172 -42 178 -37 3 3 -119
41 -169 53 -19 4 -29 1 -36 -12z"/>
<path d="M1514 1524 c-6 -3 -42 -39 -80 -82 -71 -78 -63 -80 19 -4 40 36 87
94 76 91 -2 0 -9 -3 -15 -5z"/>
<path d="M1678 1514 c6 -11 43 -49 84 -84 69 -61 66 -53 -12 36 -15 18 -40 40
-55 50 -28 18 -28 18 -17 -2z"/>
<path d="M1647 1514 c-2 -3 3 -19 12 -37 18 -36 92 -147 98 -147 6 0 -69 144
-87 167 -10 12 -20 20 -23 17z"/>
<path d="M1528 1493 c-16 -19 -91 -163 -85 -163 9 0 97 141 97 155 0 8 5 15
11 15 7 0 9 -9 4 -22 -8 -27 -35 -161 -34 -168 1 -11 41 108 48 147 6 33 5 43
-6 47 -19 8 -18 8 -35 -11z"/>
<path d="M1590 1416 c0 -49 5 -88 11 -91 7 -5 9 23 8 84 -2 115 -19 120 -19 7z"/>
<path d="M1627 1468 c8 -40 51 -167 52 -153 2 20 -27 142 -38 163 -17 31 -22
27 -14 -10z"/>
<path d="M1113 1423 c-3 -10 -11 -21 -17 -25 -7 -5 -6 -8 2 -8 8 0 16 9 19 20
6 22 18 26 26 10 3 -6 4 -5 3 2 -4 20 -26 21 -33 1z"/>
<path d="M2060 1421 c8 -6 18 -7 22 -5 4 3 5 -2 2 -10 -3 -9 -1 -16 6 -16 6 0
8 5 5 10 -3 6 0 10 7 10 9 0 9 3 -2 10 -8 5 -24 10 -35 10 -16 0 -17 -2 -5 -9z"/>
<path d="M1120 1384 c-14 -8 -17 -13 -8 -10 20 6 34 -10 16 -18 -7 -3 -2 -3
12 0 24 5 24 4 6 -10 -19 -15 -19 -16 -2 -16 16 0 17 -2 5 -17 -12 -14 -10
-14 14 1 30 20 35 29 12 20 -8 -4 -15 -1 -15 5 0 6 6 11 13 12 6 0 2 5 -11 11
-13 7 -21 17 -18 25 6 16 7 16 -24 -3z"/>
<path d="M2054 1385 c26 -20 42 -19 22 0 -8 8 -21 15 -28 15 -8 -1 -6 -6 6
-15z"/>
<path d="M2040 1345 c25 -26 36 -33 24 -14 -3 6 0 16 7 21 10 6 7 7 -10 3 -16
-5 -21 -4 -17 4 4 6 0 11 -10 11 -15 0 -14 -4 6 -25z"/>
<path d="M1884 1318 l-29 -33 33 29 c30 28 37 36 29 36 -2 0 -16 -15 -33 -32z"/>
<path d="M2014 1331 c0 -11 8 -22 18 -24 16 -5 16 -3 1 19 -19 29 -19 29 -19
5z"/>
<path d="M1195 1301 c3 -5 1 -12 -5 -16 -5 -3 -10 -1 -10 4 0 6 -5 11 -11 11
-8 0 -9 -4 0 -13 6 -8 7 -18 3 -23 -4 -5 3 0 16 10 24 20 29 36 11 36 -5 0 -8
-4 -4 -9z"/>
<path d="M1997 1293 c5 -13 2 -15 -11 -10 -9 4 -15 3 -12 -2 3 -5 -4 -11 -15
-14 -26 -7 -21 -25 12 -46 l24 -15 -24 27 c-20 22 -21 27 -8 27 9 0 21 -8 27
-17 11 -17 11 -17 6 1 -5 14 -2 17 10 12 14 -5 15 -4 5 8 -10 11 -9 15 4 18
13 2 12 5 -4 15 -18 11 -19 10 -14 -4z"/>
<path d="M1194 1258 c-19 -22 -19 -22 0 -8 18 14 19 13 13 -2 -3 -10 -2 -18 4
-18 6 0 7 -5 3 -12 -4 -6 5 -3 19 8 27 19 34 34 17 34 -5 0 -14 -8 -20 -17 -9
-15 -10 -13 -5 10 7 33 -5 35 -31 5z"/>
<path d="M1859 1263 c-13 -16 -12 -17 4 -4 16 13 21 21 13 21 -2 0 -10 -8 -17
-17z"/>
<path d="M1923 1212 c5 -26 4 -30 -11 -26 -14 5 -15 4 -2 -5 13 -10 13 -12 0
-21 -10 -7 -11 -10 -2 -10 7 0 18 11 24 25 6 14 18 25 27 25 12 0 12 3 3 12
-10 10 -15 10 -23 -2 -9 -13 -10 -12 -5 2 3 10 0 20 -6 24 -8 5 -9 -2 -5 -24z"/>
<path d="M1247 1216 c-16 -13 -16 -14 -1 -20 9 -4 19 -4 22 -1 3 3 0 5 -7 5
-7 0 -9 5 -6 10 4 6 11 8 16 5 5 -4 9 -1 9 4 0 15 -11 13 -33 -3z"/>
<path d="M1535 1210 c-3 -6 1 -7 9 -4 18 7 21 14 7 14 -6 0 -13 -4 -16 -10z"/>
<path d="M1639 1203 c-12 -16 -12 -17 2 -6 9 7 20 9 24 5 5 -4 5 -1 1 6 -9 16
-11 15 -27 -5z"/>
<path d="M1282 1190 c-18 -29 -15 -33 8 -10 21 21 25 30 12 30 -4 0 -13 -9
-20 -20z"/>
<path d="M1875 1201 c-3 -5 0 -13 6 -17 7 -4 9 -3 5 4 -3 5 0 13 6 15 9 4 10
6 1 6 -6 1 -14 -3 -18 -8z"/>
<path d="M1308 1176 c-19 -14 -25 -32 -8 -21 6 3 10 1 10 -6 0 -7 7 -4 15 7
25 34 16 45 -17 20z"/>
<path d="M1840 1171 c0 -7 -4 -9 -10 -6 -6 4 -7 -1 -3 -12 6 -16 5 -16 -11 -4
-16 13 -16 12 -5 -13 l13 -27 11 28 c11 27 12 27 23 8 6 -11 11 -15 11 -10 0
6 -6 19 -14 29 -8 11 -15 14 -15 7z"/>
<path d="M1380 1145 c-7 -8 -16 -12 -21 -9 -5 3 -9 -3 -9 -12 0 -15 4 -14 25
6 27 25 31 21 14 -13 -10 -21 -10 -21 5 -3 9 11 16 23 16 27 0 16 -18 18 -30
4z"/>
<path d="M1770 1127 c0 -20 5 -25 20 -24 11 1 20 4 20 8 0 3 -9 14 -20 24 -20
18 -20 17 -20 -8z"/>
<path d="M1416 1123 c-6 -14 -5 -15 5 -6 7 7 10 15 7 18 -3 3 -9 -2 -12 -12z"/>
<path d="M1740 1130 c0 -8 5 -22 10 -30 9 -13 10 -13 10 0 0 8 -5 22 -10 30
-9 13 -10 13 -10 0z"/>
<path d="M1477 1124 c-3 -3 -3 -12 0 -20 3 -9 0 -14 -7 -12 -7 2 -14 -2 -16
-7 -2 -6 5 -11 16 -11 15 0 20 7 20 28 0 29 -2 32 -13 22z"/>
<path d="M1437 1113 c-4 -3 -7 -13 -7 -22 1 -13 3 -13 11 2 11 19 8 33 -4 20z"/>
<path d="M1531 1104 c0 -11 3 -14 6 -6 3 7 2 16 -1 19 -3 4 -6 -2 -5 -13z"/>
<path d="M1708 1093 c5 -25 6 -25 13 -8 4 12 8 14 8 6 1 -8 4 -11 7 -8 7 7
-14 37 -26 37 -4 0 -5 -12 -2 -27z"/>
<path d="M1583 1093 c-3 -10 -7 -20 -9 -23 -1 -3 6 -6 17 -6 10 0 19 6 19 14
0 7 -5 10 -12 6 -8 -5 -9 -2 -5 9 3 10 4 17 1 17 -2 0 -7 -8 -11 -17z"/>
<path d="M1640 1088 c0 -12 4 -16 11 -12 6 3 15 0 20 -7 6 -9 9 -10 9 -2 0 6
-5 15 -10 18 -6 4 -8 10 -6 14 3 4 -1 8 -9 8 -8 0 -15 -9 -15 -19z"/>
<path d="M1691 1084 c0 -11 3 -14 6 -6 3 7 2 16 -1 19 -3 4 -6 -2 -5 -13z"/>
<path d="M1551 1074 c0 -11 3 -14 6 -6 3 7 2 16 -1 19 -3 4 -6 -2 -5 -13z"/>
<path d="M994 2275 c-18 -43 -18 -49 1 -84 28 -56 109 -65 141 -17 12 19 13
29 4 45 -15 28 -36 26 -56 -5 -35 -53 -101 3 -77 66 16 42 5 38 -13 -5z"/>
<path d="M2205 2260 c4 -18 -1 -34 -15 -53 -26 -33 -34 -34 -62 -2 -29 33 -56
32 -64 -2 -10 -38 36 -77 80 -69 59 11 97 90 66 136 -8 11 -9 9 -5 -10z"/>
<path d="M823 2169 c9 -5 17 -18 18 -27 0 -11 2 -12 6 -4 6 15 -14 42 -31 42
-6 0 -3 -5 7 -11z"/>
<path d="M2362 2168 c-7 -7 -11 -21 -11 -32 1 -21 1 -21 6 -1 3 11 10 26 15
33 13 15 6 16 -10 0z"/>
<path d="M830 2085 c-6 -70 17 -108 72 -119 55 -11 118 53 88 89 -21 25 -50
18 -61 -15 -21 -57 -83 -30 -92 40 -4 34 -4 34 -7 5z"/>
<path d="M2362 2078 c-4 -69 -85 -100 -94 -36 -4 31 -43 36 -57 9 -24 -44 31
-99 87 -87 50 12 74 46 69 102 -3 40 -4 42 -5 12z"/>
<path d="M687 1933 c23 -4 26 -11 38 -88 9 -58 39 -85 91 -85 51 0 84 28 84
71 0 63 -61 61 -70 -2 -4 -26 -10 -35 -27 -37 -32 -5 -73 39 -73 78 0 44 -17
70 -43 69 l-22 -2 22 -4z"/>
<path d="M2483 1918 c-4 -7 -10 -33 -13 -57 -9 -79 -89 -110 -98 -38 -4 36
-25 51 -51 37 -31 -16 -23 -79 13 -102 16 -11 84 -10 106 2 21 11 40 60 40
104 0 38 9 52 35 59 19 4 18 5 -2 6 -12 0 -25 -5 -30 -11z"/>
<path d="M635 1663 c11 -3 26 -12 33 -21 6 -9 12 -11 12 -6 0 17 -23 34 -44
33 -21 -1 -21 -1 -1 -6z"/>
<path d="M798 1653 c0 -5 -2 -26 -2 -48 -1 -30 -5 -40 -19 -43 -33 -7 -66 8
-81 36 -20 36 -20 20 -1 -18 8 -16 24 -34 34 -40 28 -15 83 -12 108 5 44 31
36 115 -12 115 -14 0 -26 -3 -27 -7z"/>
<path d="M2525 1649 c-11 -17 -2 -18 19 -3 17 12 17 14 4 14 -9 0 -20 -5 -23
-11z"/>
<path d="M2340 1631 c-29 -54 12 -111 80 -111 30 0 47 6 65 25 32 31 33 56 1
26 -16 -15 -33 -21 -52 -19 -26 3 -29 7 -29 38 0 19 -4 41 -8 48 -12 18 -45
14 -57 -7z"/>
<path d="M816 1425 c-3 -8 2 -28 12 -45 16 -30 16 -32 -2 -45 -26 -20 -56 -19
-86 2 l-25 16 24 -26 c19 -21 34 -27 67 -27 73 0 116 75 72 127 -14 18 -55 16
-62 -2z"/>
<path d="M2310 1411 c-27 -52 -5 -100 56 -121 41 -14 76 0 105 42 l22 33 -30
-28 c-53 -49 -124 -21 -94 37 8 13 11 32 8 40 -9 23 -54 20 -67 -3z"/>
<path d="M665 1393 c11 -3 29 -12 40 -22 20 -16 20 -16 1 7 -11 12 -29 21 -40
21 -20 -1 -20 -2 -1 -6z"/>
<path d="M2497 1383 c-3 -5 10 -8 28 -8 18 0 31 3 28 8 -2 4 -15 7 -28 7 -13
0 -26 -3 -28 -7z"/>
<path d="M907 1233 c-13 -12 -7 -40 13 -58 26 -23 25 -40 -2 -59 -32 -22 -59
-20 -98 9 -35 26 -64 32 -74 16 -4 -5 3 -7 14 -4 12 3 38 -7 66 -26 60 -39 97
-40 135 -2 33 33 38 74 13 109 -14 21 -53 30 -67 15z"/>
<path d="M2227 1215 c-40 -40 -27 -101 27 -130 40 -22 74 -15 113 21 l28 26
-29 -21 c-33 -24 -45 -26 -81 -9 -29 13 -34 52 -9 66 23 13 14 56 -12 60 -12
2 -29 -4 -37 -13z"/>
<path d="M2400 1136 c0 -2 11 -6 25 -8 13 -3 22 -1 19 3 -5 9 -44 13 -44 5z"/>
<path d="M1042 1058 c-20 -20 -14 -37 18 -53 35 -18 38 -37 10 -65 -23 -23
-49 -25 -97 -8 -36 13 -64 4 -70 -23 -3 -8 0 -7 7 4 14 21 28 21 89 1 35 -11
54 -12 73 -5 56 21 80 101 43 141 -20 22 -55 26 -73 8z"/>
<path d="M2071 1034 c-25 -31 -26 -55 -6 -93 19 -37 65 -56 102 -43 l28 10
-31 1 c-58 2 -86 62 -39 83 20 9 25 18 23 37 -4 38 -49 41 -77 5z"/>
<path d="M1229 924 c-16 -20 -1 -48 29 -52 11 -2 26 -10 33 -18 10 -12 8 -20
-8 -42 -11 -14 -31 -30 -44 -33 -21 -6 -20 -7 9 -8 56 -2 89 44 83 114 -4 45
-74 72 -102 39z"/>
<path d="M1888 925 c-32 -18 -42 -45 -34 -89 8 -44 36 -67 83 -71 21 -1 29 0
18 2 -27 6 -65 43 -65 63 0 22 20 40 46 40 29 0 39 28 18 51 -20 22 -30 23
-66 4z"/>
<path d="M2210 920 c-11 -7 -6 -8 19 -4 23 5 36 3 43 -7 8 -12 9 -11 5 1 -4
18 -46 24 -67 10z"/>
<path d="M1437 865 c-33 -32 -15 -61 34 -57 39 3 55 -20 39 -58 -7 -16 -21
-32 -32 -36 -11 -3 -17 -8 -14 -11 12 -13 65 21 76 48 14 33 6 91 -14 108 -25
21 -72 24 -89 6z"/>
<path d="M1651 844 c-38 -48 -21 -116 34 -139 48 -21 67 -19 25 3 -39 19 -62
64 -42 84 7 7 26 12 44 13 38 0 58 26 39 49 -22 26 -76 20 -100 -10z"/>
<path d="M1140 761 c-15 -29 -12 -38 5 -14 8 12 28 24 43 26 25 4 25 4 -5 6
-23 1 -35 -5 -43 -18z"/>
<path d="M2032 756 c7 -8 15 -12 17 -11 5 6 -10 25 -20 25 -5 0 -4 -6 3 -14z"/>
<path d="M1428 693 c7 -3 16 -2 19 1 4 3 -2 6 -13 5 -11 0 -14 -3 -6 -6z"/>
<path d="M1777 670 c10 -11 19 -20 21 -20 1 0 -2 9 -8 20 -6 11 -15 20 -20 20
-6 0 -2 -9 7 -20z"/>
<path d="M680 2545 c-59 -60 -68 -65 -107 -65 -32 0 -45 -5 -53 -19 -10 -21
-4 -51 11 -51 17 0 9 -21 -33 -82 -50 -72 -128 -225 -128 -248 0 -9 -5 -21
-11 -27 -15 -15 -4 -43 17 -43 10 0 14 5 11 14 -4 10 -1 13 9 9 7 -3 14 -9 14
-14 0 -14 36 -10 49 5 10 11 9 16 -5 24 -25 14 0 24 31 12 34 -13 35 -13 35 4
0 7 -25 24 -55 36 -51 21 -68 41 -45 55 5 3 32 -6 59 -20 57 -28 71 -31 71
-12 0 7 -25 25 -55 40 -30 15 -55 30 -55 35 0 6 10 23 35 60 4 5 35 -10 35
-18 0 -4 -9 -10 -21 -13 -35 -9 -11 -27 36 -27 51 0 75 8 75 24 0 8 -13 11
-36 8 -25 -3 -35 -1 -30 6 4 6 -2 20 -14 32 -11 11 -20 23 -20 26 0 3 14 25
31 50 37 54 58 49 26 -7 -22 -40 -22 -40 -2 -55 23 -17 86 -15 93 4 2 8 -9 12
-37 12 -48 0 -57 11 -32 41 l18 22 35 -26 c31 -24 48 -26 48 -6 0 4 -23 24
-50 45 -44 33 -48 40 -36 53 13 12 21 8 62 -28 34 -30 51 -38 58 -31 8 8 -3
23 -39 54 -50 44 -50 44 -31 65 24 26 41 22 41 -10 0 -33 39 -38 69 -9 21 19
24 19 36 5 8 -10 17 -12 23 -6 10 10 -15 52 -51 84 -12 11 -18 26 -15 38 3 10
4 19 1 19 -2 0 -33 -29 -68 -65z m70 -40 c0 -13 -7 -25 -15 -29 -10 -3 -15 1
-15 13 0 10 -7 24 -15 31 -12 10 -13 16 -4 27 10 11 15 11 30 -3 11 -10 19
-27 19 -39z m-170 -61 c0 -9 -7 -14 -17 -12 -25 5 -28 28 -4 28 12 0 21 -6 21
-16z m-155 -365 c4 -6 5 -12 2 -15 -7 -7 -37 7 -37 17 0 13 27 11 35 -2z"/>
<path d="M2530 2513 c0 -3 8 -15 17 -25 16 -17 16 -20 0 -35 -16 -16 -17 -16
-17 6 0 40 -24 17 -39 -38 -10 -37 -11 -55 -3 -63 8 -8 13 -2 19 22 12 44 35
54 27 11 -7 -34 2 -40 21 -14 8 11 14 13 19 4 4 -7 -5 -18 -23 -29 -33 -18
-36 -39 -5 -34 25 5 54 31 54 50 0 9 -7 23 -16 33 -9 10 -13 23 -9 29 9 15 46
-20 85 -80 34 -53 41 -89 11 -52 -11 12 -24 22 -30 22 -14 0 -24 -43 -16 -69
5 -16 2 -21 -10 -21 -14 0 -16 7 -13 33 3 17 8 40 13 50 5 12 3 17 -8 17 -31
0 -38 -87 -9 -113 23 -21 36 -21 57 -1 15 15 15 18 -1 35 -9 10 -13 23 -9 29
5 8 12 4 22 -10 10 -14 21 -19 33 -15 15 5 24 -3 40 -35 23 -46 19 -67 -6 -32
-28 40 -78 19 -73 -30 1 -13 -2 -31 -6 -41 -11 -27 -1 -30 35 -12 17 9 38 14
47 11 23 -9 5 -26 -28 -26 -16 0 -29 -4 -29 -10 0 -16 46 -23 70 -10 18 9 21
18 16 41 -3 17 -1 29 5 29 14 0 42 -71 32 -80 -4 -4 -32 -15 -60 -26 -29 -10
-53 -21 -53 -25 0 -18 22 -18 71 1 39 14 56 17 66 9 10 -9 13 -7 13 7 0 11 7
28 15 38 31 41 8 95 -34 81 -17 -5 -25 3 -47 47 -40 80 -110 185 -173 260 -52
62 -71 78 -71 61z m190 -348 c0 -8 -9 -15 -20 -15 -20 0 -26 11 -13 23 12 13
33 7 33 -8z m130 -59 c0 -16 -18 -31 -27 -22 -8 8 5 36 17 36 5 0 10 -6 10
-14z"/>
<path d="M2550 2225 c0 -8 7 -15 15 -15 9 0 12 6 9 15 -4 8 -10 15 -15 15 -5
0 -9 -7 -9 -15z"/>
<path d="M425 1610 c-19 -8 -19 -9 3 -9 12 -1 22 4 22 9 0 6 -1 10 -2 9 -2 0
-12 -4 -23 -9z"/>
<path d="M2758 1603 c6 -2 18 -2 25 0 6 3 1 5 -13 5 -14 0 -19 -2 -12 -5z"/>
<path d="M265 1572 c-67 -6 -65 -22 3 -22 34 0 62 4 62 9 0 13 -19 17 -65 13z"/>
<path d="M354 1571 c-15 -15 4 -21 66 -21 40 0 70 4 70 10 0 6 -6 10 -12 10
-7 1 -37 2 -66 3 -29 1 -55 0 -58 -2z"/>
<path d="M2727 1572 c-9 -2 -17 -8 -17 -13 0 -5 32 -9 70 -9 51 0 70 4 70 13
0 12 -76 18 -123 9z"/>
<path d="M2875 1560 c-4 -6 17 -10 55 -10 38 0 59 4 55 10 -3 6 -28 10 -55 10
-27 0 -52 -4 -55 -10z"/>
<path d="M2723 1236 l-11 -35 60 -20 59 -20 9 25 c12 31 13 44 1 44 -5 0 -11
-9 -14 -20 -4 -14 -10 -18 -22 -14 -12 5 -15 14 -11 30 8 29 -10 32 -19 3 -8
-25 -30 -19 -30 8 0 36 -11 35 -22 -1z"/>
<path d="M408 1242 c-47 -17 -66 -40 -27 -34 38 6 94 29 92 38 -3 14 -15 13
-65 -4z"/>
<path d="M413 1198 c-29 -11 -50 -25 -47 -30 3 -5 11 -7 18 -5 6 2 22 7 36 11
24 7 23 5 -7 -21 -49 -44 -30 -59 40 -32 82 31 74 51 -10 23 -10 -3 -3 6 15
21 32 27 43 56 20 54 -7 -1 -37 -10 -65 -21z"/>
<path d="M2695 1159 c-9 -17 -15 -32 -13 -33 20 -14 113 -45 119 -39 4 5 11
22 14 38 l7 30 -20 -24 c-23 -29 -45 -20 -36 15 8 29 -12 33 -21 3 -9 -28 -31
-17 -27 15 4 34 -4 33 -23 -5z"/>
<path d="M462 1105 c-54 -25 -59 -33 -42 -66 13 -23 50 -25 92 -3 27 14 29 19
24 47 -4 17 -10 35 -14 39 -4 4 -31 -4 -60 -17z m58 -19 c0 -18 -19 -33 -51
-41 -43 -11 -43 12 -2 34 46 24 53 25 53 7z"/>
<path d="M2673 1095 c3 -11 8 -28 12 -39 7 -16 6 -17 -13 -7 -13 7 -23 8 -27
1 -7 -12 101 -67 112 -56 4 4 0 12 -10 17 -25 14 -21 29 7 29 14 0 28 5 31 10
4 6 -9 10 -32 10 -28 0 -43 7 -61 28 -19 22 -23 23 -19 7z"/>
<path d="M505 1013 c-61 -31 -61 -31 -49 -43 10 -10 114 45 114 61 0 13 -10
11 -65 -18z"/>
<path d="M2610 990 l-21 -29 48 -31 c65 -40 101 -41 51 0 -28 23 -17 37 17 22
17 -8 26 -8 31 -1 7 12 -13 29 -33 29 -7 0 -22 9 -33 20 -27 27 -35 25 -60
-10z m50 -13 c0 -8 -3 -17 -7 -20 -9 -9 -34 13 -27 24 8 14 34 11 34 -4z"/>
<path d="M518 962 c-52 -17 -61 -29 -25 -34 17 -2 22 -9 20 -31 -1 -15 2 -27
6 -27 4 0 26 20 50 44 62 64 45 80 -51 48z m47 -22 c-10 -11 -22 -17 -28 -13
-6 4 -3 12 8 20 28 20 41 16 20 -7z"/>
<path d="M2562 918 c-21 -21 -13 -46 23 -73 39 -30 61 -30 82 2 14 21 13 25
-17 53 -34 31 -68 38 -88 18z m62 -29 c23 -18 36 -49 20 -49 -17 0 -74 43 -74
56 0 20 23 17 54 -7z"/>
<path d="M578 884 c-27 -20 -45 -40 -42 -45 3 -6 21 2 40 16 39 30 43 26 13
-15 -12 -16 -19 -36 -16 -45 6 -13 15 -9 57 22 47 35 61 53 41 53 -4 0 -20 -9
-35 -21 -31 -25 -33 -17 -5 22 18 26 19 49 1 49 -4 0 -28 -17 -54 -36z"/>
<path d="M2506 844 c-24 -24 -19 -50 15 -78 35 -29 61 -33 79 -11 19 23 4 61
-34 84 -40 25 -40 25 -60 5z m62 -37 c24 -23 29 -47 9 -47 -19 0 -70 57 -62
69 7 13 20 7 53 -22z"/>
<path d="M672 767 c-23 -24 -40 -46 -36 -50 8 -8 104 75 98 85 -9 14 -19 9
-62 -35z"/>
<path d="M2436 768 l-27 -23 45 -44 c44 -43 78 -52 41 -11 -16 18 -16 20 -1
26 9 3 23 1 32 -6 10 -9 18 -10 25 -3 7 7 2 15 -19 24 -16 7 -33 21 -38 33
-13 29 -28 30 -58 4z m44 -21 c0 -8 -3 -17 -7 -20 -9 -9 -34 13 -27 24 8 14
34 11 34 -4z"/>
<path d="M702 737 c-46 -47 -46 -74 0 -30 32 30 35 26 12 -19 -11 -22 -13 -33
-5 -41 8 -8 23 1 56 33 24 24 42 47 38 52 -3 6 -18 -3 -34 -18 -33 -32 -35
-30 -14 19 13 32 12 47 -5 47 -3 0 -25 -19 -48 -43z"/>
<path d="M800 695 c-8 -9 -9 -28 -5 -56 6 -33 4 -40 -6 -37 -8 3 -15 14 -17
26 -5 30 -22 28 -22 -3 0 -32 41 -55 65 -35 17 14 20 46 5 55 -15 10 -12 35 5
35 8 0 15 -6 15 -14 0 -21 17 -29 24 -11 5 15 -26 55 -43 55 -5 0 -14 -7 -21
-15z"/>
<path d="M2365 698 c-4 -10 -5 -25 -1 -33 6 -18 1 -19 -24 -5 -12 6 -21 7 -25
0 -3 -5 9 -17 27 -26 18 -9 40 -25 49 -37 10 -11 21 -17 28 -12 9 5 8 12 -4
25 -9 10 -23 38 -30 62 -10 33 -15 39 -20 26z"/>
<path d="M884 645 c4 -13 -3 -32 -24 -61 -19 -27 -26 -45 -19 -49 5 -4 11 -5
13 -4 30 48 60 77 76 76 24 -2 25 -2 1 -35 -31 -45 -42 -70 -32 -76 5 -3 23
17 41 44 29 46 34 49 45 33 11 -15 9 -24 -12 -61 -25 -41 -26 -61 -4 -47 6 3
20 24 31 45 14 27 25 38 35 34 39 -15 7 16 -63 61 -95 61 -97 62 -88 40z"/>
<path d="M2266 627 c-24 -17 -17 -53 18 -90 30 -32 36 -33 66 -7 21 19 22 21
6 44 -10 16 -22 23 -31 20 -19 -8 -19 -24 0 -24 16 0 21 -25 6 -34 -12 -8 -63
53 -58 68 2 6 14 10 26 8 15 -1 21 3 19 10 -7 19 -31 21 -52 5z"/>
<path d="M2188 579 c-10 -5 -18 -20 -18 -32 0 -33 37 -87 59 -87 17 0 51 24
51 36 0 16 -42 83 -55 88 -20 7 -16 8 -37 -5z m62 -80 c0 -26 -18 -20 -43 13
-13 17 -17 33 -13 45 7 16 10 15 32 -10 13 -15 24 -37 24 -48z"/>
<path d="M1040 500 c-27 -58 -20 -85 21 -85 17 0 30 11 46 40 25 44 29 65 13
65 -6 0 -19 -20 -30 -45 -18 -43 -33 -55 -44 -37 -2 4 4 28 15 52 11 24 16 47
11 52 -5 5 -19 -14 -32 -42z"/>
<path d="M2090 520 c0 -6 11 -33 25 -60 24 -48 25 -48 55 -37 35 13 41 32 7
23 -20 -5 -26 1 -45 39 -20 41 -42 59 -42 35z"/>
<path d="M1140 501 c0 -5 5 -11 10 -13 7 -2 5 -19 -5 -47 -17 -50 -18 -61 -6
-61 5 0 17 20 27 45 9 25 23 45 30 45 25 0 14 18 -17 29 -39 13 -39 13 -39 2z"/>
<path d="M2022 498 c-30 -30 2 -118 42 -118 33 0 50 24 41 57 -15 63 -53 91
-83 61z m51 -45 c9 -23 12 -42 6 -48 -13 -14 -37 14 -45 53 -9 47 20 43 39 -5z"/>
<path d="M1207 422 c-17 -62 -16 -67 26 -77 31 -8 38 10 7 20 -30 10 -26 38 5
33 27 -6 35 9 10 18 -26 11 -18 37 10 32 14 -3 25 -2 25 3 0 10 -9 15 -41 22
-24 6 -27 3 -42 -51z"/>
<path d="M1970 454 c17 -45 10 -50 -20 -14 -23 29 -30 32 -35 19 -8 -22 18
-112 34 -117 9 -3 11 2 7 17 -3 11 -8 31 -11 44 -5 22 -5 22 9 2 8 -11 21 -28
28 -37 7 -10 18 -14 25 -10 16 10 -15 122 -33 122 -10 0 -11 -6 -4 -26z"/>
<path d="M1870 425 c0 -16 -6 -25 -15 -25 -8 0 -15 9 -15 20 0 11 -7 20 -15
20 -16 0 -16 -4 6 -93 11 -44 33 -40 24 4 -5 22 -3 29 9 29 9 0 18 -11 22 -25
8 -32 34 -34 27 -2 -17 74 -25 97 -33 97 -6 0 -10 -11 -10 -25z"/>
<path d="M1340 420 c-28 -53 7 -129 48 -104 24 15 39 89 22 109 -18 22 -57 19
-70 -5z m55 -23 c-2 -7 -6 -24 -9 -39 -8 -35 -36 -37 -36 -4 0 14 5 37 10 51
8 22 13 25 25 15 7 -6 12 -17 10 -23z"/>
<path d="M1436 408 c-9 -36 -7 -108 3 -108 5 0 11 12 13 28 2 21 8 27 26 25
27 -3 29 13 2 20 -11 3 -20 13 -20 22 0 12 6 16 20 12 24 -6 36 8 14 17 -31
12 -52 6 -58 -16z"/>
<path d="M1737 423 c-11 -10 -8 -82 3 -104 12 -21 40 -25 58 -7 15 15 16 48 2
48 -5 0 -10 -6 -10 -14 0 -21 -21 -31 -31 -15 -12 19 -11 76 0 84 6 3 14 -3
20 -12 11 -21 26 -11 18 12 -6 15 -48 21 -60 8z"/>
<path d="M1550 410 c0 -5 7 -10 15 -10 12 0 15 -13 15 -55 0 -30 5 -55 10 -55
6 0 10 25 10 55 0 42 3 55 15 55 8 0 15 5 15 10 0 6 -18 10 -40 10 -22 0 -40
-4 -40 -10z"/>
<path d="M1645 358 c4 -35 8 -64 9 -64 6 -6 66 10 66 18 0 5 -10 8 -22 6 -15
-2 -24 3 -26 15 -2 12 3 17 17 17 12 0 21 5 21 10 0 6 -9 10 -20 10 -11 0 -20
7 -20 15 0 8 9 15 20 15 11 0 20 5 20 10 0 6 -16 10 -36 10 l-36 0 7 -62z"/>
</g>
</svg>
