<?xml version="1.0" standalone="no"?>
<!DOCTYPE svg PUBLIC "-//W3C//DTD SVG 20010904//EN"
 "http://www.w3.org/TR/2001/REC-SVG-20010904/DTD/svg10.dtd">
<svg version="1.0" xmlns="http://www.w3.org/2000/svg"
 width="243.000000pt" height="207.000000pt" viewBox="0 0 243.000000 207.000000"
 preserveAspectRatio="xMidYMid meet">

<g transform="translate(0.000000,207.000000) scale(0.100000,-0.100000)"
fill="#000000" stroke="none">
<path d="M1716 1967 c101 -66 150 -104 142 -112 -3 -4 -25 3 -48 15 -30 16
-45 19 -53 11 -17 -17 88 -112 164 -149 35 -18 85 -35 112 -38 l47 -7 -6 34
c-15 85 -39 135 -96 192 -31 31 -61 57 -67 57 -6 0 -5 -17 4 -47 8 -26 13 -48
12 -50 -2 -1 -15 9 -29 22 -47 43 -121 85 -187 105 -35 11 -66 20 -70 20 -3 0
30 -24 75 -53z"/>
<path d="M720 1971 c-73 -28 -110 -50 -158 -94 l-45 -42 7 38 c4 21 10 45 13
54 5 13 3 13 -23 0 -64 -34 -125 -132 -140 -226 -6 -39 -5 -43 12 -38 10 3 37
8 58 12 60 10 133 51 193 107 75 72 72 98 -7 58 -91 -46 -47 1 80 86 94 63 97
78 10 45z"/>
<path d="M971 1893 c-22 -18 -22 -21 -10 -61 15 -52 3 -69 -54 -79 -32 -5 -38
-3 -48 21 -17 37 -53 32 -106 -16 -20 -19 -21 -22 -7 -60 19 -55 18 -65 -9
-83 -21 -13 -28 -13 -72 2 l-48 16 -23 -27 c-24 -27 -41 -87 -30 -108 3 -7 11
-21 18 -30 18 -25 -15 -93 -40 -83 -59 23 -71 19 -92 -26 -11 -24 -20 -50 -20
-56 0 -7 23 -24 50 -38 45 -23 50 -29 50 -58 0 -31 -4 -34 -50 -51 -51 -18
-64 -36 -62 -88 1 -52 17 -66 65 -61 42 5 44 4 60 -30 21 -44 16 -56 -33 -87
-23 -14 -40 -33 -40 -43 0 -22 25 -83 36 -90 9 -4 167 53 180 65 3 4 -4 32
-16 64 -47 128 -63 282 -39 396 39 190 196 352 416 429 78 28 96 54 62 93 -13
15 -29 44 -35 64 -9 33 -15 37 -46 40 -22 2 -43 -3 -57 -15z"/>
<path d="M1355 1870 c-4 -23 -18 -54 -32 -71 -23 -27 -24 -31 -10 -52 9 -14
34 -28 67 -36 200 -51 380 -217 434 -400 26 -87 22 -257 -9 -377 -14 -53 -24
-98 -22 -99 4 -4 122 -47 150 -55 23 -7 30 -5 42 14 8 12 18 36 21 54 6 29 3
33 -40 59 -49 30 -56 50 -34 98 10 23 17 26 56 24 51 -4 62 8 62 67 0 41 -22
74 -49 74 -6 0 -25 7 -41 15 -23 12 -30 22 -30 45 0 26 7 33 45 52 51 25 57
46 28 105 -17 37 -20 37 -91 17 -18 -5 -24 -1 -37 29 -15 35 -12 67 6 67 17 0
9 65 -11 98 -27 43 -44 48 -97 29 -73 -27 -102 0 -77 73 13 38 13 44 -2 61 -8
9 -32 25 -52 35 -34 16 -37 16 -47 0 -30 -51 -30 -51 -74 -37 -50 14 -58 30
-43 79 11 34 10 39 -11 54 -12 10 -38 18 -59 18 -35 0 -37 -2 -43 -40z"/>
<path d="M2117 1813 c-10 -10 -8 -66 4 -122 6 -27 9 -63 7 -80 l-3 -31 -65 40
c-104 64 -114 53 -34 -37 95 -109 164 -175 177 -170 28 9 35 147 12 245 -19
82 -78 175 -98 155z"/>
<path d="M287 1761 c-46 -55 -68 -145 -65 -262 3 -103 3 -104 28 -104 18 0 49
28 127 115 60 68 97 116 89 118 -7 2 -41 -13 -74 -33 -33 -19 -65 -35 -71 -35
-15 0 -14 32 5 102 16 65 16 119 -2 125 -6 2 -23 -10 -37 -26z"/>
<path d="M920 1561 c0 -24 19 -31 79 -31 l48 0 6 -182 c4 -99 7 -273 7 -384 0
-229 2 -224 -79 -224 -37 0 -41 -2 -41 -25 l0 -25 331 2 331 3 24 70 c13 39
31 93 39 120 l15 50 -21 -25 c-54 -66 -115 -124 -145 -136 -44 -18 -273 -20
-297 -1 -16 11 -17 43 -15 382 l3 370 53 8 c42 7 52 12 52 28 0 18 -9 19 -195
19 -185 0 -195 -1 -195 -19z"/>
<path d="M2272 1513 c-6 -16 -14 -57 -17 -93 -6 -66 -22 -120 -34 -120 -4 0
-25 24 -46 53 -47 62 -73 87 -92 87 -10 0 -11 -5 -5 -17 14 -26 48 -103 69
-154 28 -68 70 -144 87 -158 27 -23 42 -6 81 91 32 80 38 104 38 173 0 64 -4
89 -21 123 -26 49 -45 53 -60 15z"/>
<path d="M1400 1498 c-26 -14 -60 -44 -82 -73 -101 -134 -89 -363 24 -472 95
-92 238 -81 312 24 53 76 69 128 70 228 0 78 -4 98 -27 150 -66 143 -184 200
-297 143z m119 -70 c110 -107 131 -357 39 -455 -30 -32 -70 -29 -112 7 -94 83
-129 297 -67 419 36 70 87 81 140 29z"/>
<path d="M114 1473 c-36 -77 -29 -188 19 -306 32 -77 49 -100 69 -92 18 7 53
64 78 125 7 19 31 72 52 118 43 94 43 92 23 92 -8 0 -41 -32 -72 -70 -68 -83
-77 -80 -88 33 -8 82 -27 137 -48 137 -8 0 -23 -17 -33 -37z"/>
<path d="M775 1440 l-29 -30 32 0 c58 0 62 -17 62 -266 l0 -221 -40 -13 c-22
-7 -40 -19 -40 -27 0 -21 246 -19 254 2 4 11 -6 18 -39 27 l-45 12 0 243 0
243 45 0 c43 0 45 1 45 30 l0 30 -108 0 c-107 0 -109 0 -137 -30z"/>
<path d="M2336 1197 c-8 -12 -29 -55 -46 -96 -33 -81 -49 -106 -61 -94 -4 4
-21 45 -39 90 -29 78 -45 102 -56 90 -3 -3 2 -70 11 -149 26 -241 40 -275 92
-227 42 40 114 146 135 202 20 52 28 172 14 196 -11 18 -34 13 -50 -12z"/>
<path d="M54 1154 c-15 -105 33 -232 129 -339 81 -90 86 -83 117 195 9 85 16
156 15 158 -9 11 -45 -48 -64 -105 -34 -99 -35 -100 -58 -67 -11 16 -32 61
-47 99 -45 115 -80 137 -92 59z"/>
<path d="M2106 890 c-9 -29 -56 -276 -62 -332 -9 -76 6 -82 83 -37 84 51 168
133 198 193 29 60 38 136 16 144 -8 3 -49 -33 -100 -87 -47 -51 -90 -89 -94
-85 -4 4 -7 44 -7 88 -1 50 -6 91 -15 106 -10 19 -15 21 -19 10z"/>
<path d="M317 848 c-3 -13 -9 -60 -13 -105 -3 -46 -9 -83 -13 -83 -3 0 -42 38
-86 85 -45 47 -89 85 -99 85 -17 0 -18 -6 -13 -50 3 -27 14 -67 24 -87 24 -54
127 -153 203 -197 60 -35 65 -37 77 -20 17 23 18 8 -22 208 -19 96 -35 177
-35 180 0 16 -19 3 -23 -16z"/>
<path d="M1667 685 c-82 -78 -173 -136 -267 -168 -81 -29 -234 -27 -320 2 -82
28 -189 94 -259 160 -64 60 -104 68 -116 24 -3 -14 -22 -41 -41 -59 -35 -31
-35 -33 -21 -61 9 -16 28 -35 43 -42 25 -11 30 -9 60 20 32 31 34 32 59 15 39
-26 51 -58 31 -88 -15 -23 -15 -26 6 -46 29 -26 76 -44 91 -35 7 4 18 15 25
25 43 59 95 39 106 -41 6 -48 8 -51 41 -57 59 -11 102 2 113 35 18 50 102 56
102 7 0 -47 9 -56 59 -56 25 0 51 4 58 8 6 4 13 32 15 62 3 49 6 56 30 64 23
8 32 5 64 -23 31 -28 42 -32 73 -27 19 3 46 16 59 30 l25 24 -23 31 c-27 39
-21 73 16 98 21 13 29 14 43 5 9 -7 31 -20 49 -29 32 -16 32 -16 61 11 48 46
46 58 -29 125 -38 34 -70 61 -72 61 -2 -1 -38 -34 -81 -75z"/>
<path d="M1985 622 c-29 -71 -78 -151 -126 -206 -49 -55 -143 -106 -199 -106
-54 -1 -17 -16 72 -30 187 -30 309 16 410 154 50 69 38 78 -57 43 -28 -11 -45
-12 -59 -5 -17 9 -18 18 -12 92 8 100 -3 121 -29 58z"/>
<path d="M432 553 c3 -49 3 -94 1 -100 -7 -19 -52 -15 -100 6 -36 17 -44 17
-53 5 -10 -11 -4 -24 29 -63 105 -125 169 -156 316 -153 50 1 113 8 140 15
l50 14 -45 8 c-72 12 -126 43 -183 105 -52 55 -137 201 -137 234 0 9 -5 16
-11 16 -9 0 -10 -25 -7 -87z"/>
<path d="M990 258 c-51 -21 -187 -56 -241 -62 -30 -4 -74 -3 -97 2 -34 8 -42
7 -42 -4 0 -40 73 -77 184 -94 97 -15 164 1 300 70 55 28 101 49 103 47 2 -3
-37 -37 -86 -78 -95 -78 -98 -93 -11 -64 54 18 100 59 125 111 9 19 21 34 28
34 7 -1 27 -25 46 -54 45 -72 86 -94 166 -88 18 2 17 3 -5 19 -66 43 -132 98
-142 117 -11 19 -10 20 13 5 13 -9 60 -35 103 -59 70 -38 88 -44 158 -48 45
-3 105 1 139 8 60 13 157 63 194 102 l20 20 -35 -5 c-137 -23 -298 -14 -362
19 -40 21 -254 20 -262 -1 -7 -19 -35 -19 -42 0 -5 12 -27 15 -118 14 -61 0
-122 -5 -136 -11z"/>
</g>
</svg>
