<?xml version="1.0" standalone="no"?>
<!DOCTYPE svg PUBLIC "-//W3C//DTD SVG 20010904//EN"
 "http://www.w3.org/TR/2001/REC-SVG-20010904/DTD/svg10.dtd">
<svg version="1.0" xmlns="http://www.w3.org/2000/svg"
 width="502.000000pt" height="199.000000pt" viewBox="0 0 502.000000 199.000000"
 preserveAspectRatio="xMidYMid meet">

<g transform="translate(0.000000,199.000000) scale(0.100000,-0.100000)"
fill="#000000" stroke="none">
<path d="M1829 1941 c-248 -51 -416 -120 -504 -206 -43 -41 -55 -62 -73 -120
-35 -116 -104 -177 -230 -204 -72 -15 -200 -13 -297 4 -43 8 -81 13 -82 11 -4
-4 190 -60 297 -86 91 -23 261 -37 304 -26 15 4 35 15 46 26 18 18 19 29 14
103 -7 93 4 131 57 198 81 103 317 224 599 308 99 29 30 25 -131 -8z"/>
<path d="M795 1793 c-235 -52 -342 -109 -365 -193 -26 -96 -99 -135 -239 -128
-50 2 -89 3 -88 2 12 -12 214 -54 260 -54 85 0 101 11 92 66 -16 112 85 203
320 285 70 24 80 36 20 22z"/>
<path d="M3370 1586 c-187 -50 -286 -253 -236 -485 35 -167 116 -222 395 -272
203 -36 268 -69 307 -153 27 -58 32 -160 12 -228 -17 -56 -87 -131 -147 -157
-97 -41 -225 -38 -325 9 -119 57 -197 175 -219 333 -7 58 -16 87 -24 87 -10 0
-13 -51 -13 -235 0 -186 3 -235 13 -235 7 0 17 14 22 32 17 55 32 56 151 8
133 -52 228 -68 319 -53 221 38 333 192 323 448 -3 85 -8 109 -32 158 -51 105
-133 148 -375 197 -236 48 -296 76 -326 154 -27 70 -17 178 22 247 71 127 241
165 399 88 75 -35 127 -91 164 -173 22 -47 50 -151 50 -183 0 -2 7 -3 15 -3
13 0 15 26 13 192 -3 197 -11 230 -39 166 -21 -48 -54 -48 -136 1 -111 66
-228 86 -333 57z"/>
<path d="M1970 1583 c-144 -15 -282 -67 -355 -134 -55 -50 -80 -96 -107 -193
-43 -159 -133 -242 -305 -282 -94 -22 -360 -14 -493 15 -52 11 -96 19 -97 17
-2 -2 49 -22 114 -44 444 -155 722 -183 818 -82 26 27 29 38 35 130 10 135 44
207 145 305 100 98 284 199 444 246 35 10 40 14 25 20 -19 8 -159 9 -224 2z"/>
<path d="M2500 1555 c0 -12 16 -15 85 -15 l85 0 0 -625 0 -625 -85 0 c-69 0
-85 -3 -85 -15 0 -13 33 -15 262 -13 198 2 262 6 266 16 3 9 -18 12 -82 12
l-86 0 0 625 0 625 85 0 c69 0 85 3 85 15 0 13 -36 15 -265 15 -229 0 -265 -2
-265 -15z"/>
<path d="M3980 1555 c0 -12 17 -15 90 -15 l90 0 0 -625 0 -625 -90 0 c-73 0
-90 -3 -90 -15 0 -22 654 -22 748 0 180 43 286 166 285 335 0 172 -107 284
-314 329 l-82 17 73 11 c148 23 241 93 275 206 44 149 -16 277 -161 344 -101
46 -165 53 -506 53 -276 0 -318 -2 -318 -15z m637 -49 c108 -50 163 -125 171
-235 7 -97 -18 -174 -72 -226 -55 -53 -97 -65 -243 -72 l-123 -6 0 288 0 288
104 -5 c84 -5 115 -11 163 -32z m3 -594 c63 -24 121 -77 153 -136 19 -35 22
-57 22 -156 0 -133 -19 -190 -83 -253 -58 -57 -100 -70 -239 -75 l-123 -4 0
327 0 328 108 -5 c75 -4 123 -12 162 -26z"/>
<path d="M2370 1253 c0 -5 -10 -9 -22 -10 -80 -8 -132 -20 -116 -27 19 -9 33
-37 14 -30 -7 3 -20 -4 -29 -14 -16 -17 -15 -20 28 -50 25 -17 45 -37 44 -44
0 -7 -7 -3 -16 10 -15 22 -53 31 -53 12 0 -9 -29 -24 -102 -54 -39 -15 -140
-20 -220 -10 l-47 6 -78 -80 c-43 -44 -107 -111 -143 -150 -104 -110 -236
-164 -440 -178 -75 -5 -100 -11 -117 -27 -17 -15 -30 -18 -55 -13 -18 4 -53 8
-78 10 -24 2 -46 8 -48 14 -2 6 -10 8 -19 5 -10 -4 -14 -2 -9 5 10 16 -12 25
-73 28 -42 2 -62 -2 -84 -18 -33 -24 -46 -19 -17 7 11 10 20 22 20 27 0 9 -41
-11 -51 -26 -4 -5 -12 -5 -18 -2 -6 4 -11 0 -11 -11 0 -10 -3 -27 -6 -39 -5
-17 0 -22 25 -27 17 -4 42 -2 56 3 35 13 42 -6 8 -23 -15 -7 -36 -12 -45 -10
-23 6 -23 -2 3 -38 29 -41 74 -41 82 0 7 35 27 44 61 28 35 -16 33 -31 -4 -23
-26 5 -32 2 -39 -17 -10 -26 3 -35 24 -17 11 9 18 9 30 -4 23 -22 42 -20 48 5
4 15 11 20 22 15 9 -3 25 -1 35 4 15 8 18 7 14 -3 -3 -8 -17 -20 -32 -27 -23
-11 -24 -14 -9 -18 10 -2 26 3 36 12 30 27 57 16 29 -12 -9 -9 -8 -12 4 -12 9
0 24 7 33 17 14 13 18 14 25 3 5 -8 4 -22 -1 -31 -9 -17 2 -32 26 -35 6 0 17
-2 25 -3 25 -2 -10 -21 -40 -21 -16 0 -41 -14 -62 -34 -20 -19 -56 -40 -78
-46 -41 -11 -42 -12 -23 -32 23 -26 127 -99 173 -123 19 -9 60 -30 90 -45 59
-30 180 -64 267 -74 46 -6 54 -4 76 18 17 17 32 23 46 19 26 -7 27 -19 4 -32
-28 -16 89 -2 187 21 196 47 383 165 504 317 137 173 201 333 221 556 11 118
-33 355 -66 355 -5 0 -9 -3 -9 -7z m-85 -93 c3 -6 -4 -10 -17 -10 -18 0 -20 2
-8 10 19 12 18 12 25 0z m-385 -250 c0 -5 -5 -10 -11 -10 -5 0 -7 5 -4 10 3 6
8 10 11 10 2 0 4 -4 4 -10z m-164 -36 c-10 -14 -20 -23 -23 -20 -3 3 2 17 11
32 10 14 20 23 23 20 3 -3 -2 -17 -11 -32z m9 -94 c-5 -8 -11 -8 -17 -2 -6 6
-7 16 -3 22 5 8 11 8 17 2 6 -6 7 -16 3 -22z m360 0 c-3 -5 -11 -10 -16 -10
-6 0 -7 5 -4 10 3 6 11 10 16 10 6 0 7 -4 4 -10z m-465 -10 c0 -5 -2 -10 -4
-10 -3 0 -8 5 -11 10 -3 6 -1 10 4 10 6 0 11 -4 11 -10z m185 -50 c3 -5 1 -10
-4 -10 -6 0 -11 5 -11 10 0 6 2 10 4 10 3 0 8 -4 11 -10z m45 1 c0 -11 -29
-35 -35 -29 -10 9 7 38 21 38 8 0 14 -4 14 -9z m-170 -9 c0 -5 -9 -18 -21 -30
-11 -12 -17 -27 -13 -34 4 -7 3 -8 -4 -4 -7 4 -12 2 -12 -3 0 -6 4 -11 9 -11
6 0 9 -9 8 -19 -1 -16 -12 -22 -55 -29 -29 -5 -68 -6 -85 -2 -38 9 -38 10 40
14 75 5 89 12 67 34 -11 10 -13 17 -5 20 6 2 11 8 11 13 0 11 42 57 53 58 4 1
7 -3 7 -7z m530 -78 c0 -2 -5 -4 -11 -4 -5 0 -8 4 -5 9 3 5 -1 14 -9 21 -7 6
-11 18 -8 27 4 11 10 6 19 -17 8 -18 14 -34 14 -36z m-660 -4 c18 -12 2 -12
-25 0 -13 6 -15 9 -5 9 8 0 22 -4 30 -9z m210 -40 c0 -11 -4 -20 -10 -20 -5 0
-10 9 -10 20 0 11 5 20 10 20 6 0 10 -9 10 -20z m134 4 c8 -21 8 -24 -5 -24
-5 0 -7 5 -4 10 3 6 1 10 -4 10 -6 0 -11 5 -11 10 0 16 17 12 24 -6z m-549
-14 c3 -5 1 -10 -4 -10 -6 0 -11 5 -11 10 0 6 2 10 4 10 3 0 8 -4 11 -10z
m275 -30 c9 0 16 -8 16 -20 0 -24 -12 -26 -24 -4 -8 15 -11 15 -36 -1 -35 -23
-42 -14 -14 18 15 16 27 22 33 16 5 -5 16 -9 25 -9z m-785 0 c-3 -5 -16 -10
-28 -10 -18 0 -19 2 -7 10 20 13 43 13 35 0z m1148 -25 c-3 -8 -9 -15 -14 -15
-10 0 -12 24 -3 33 11 11 24 -3 17 -18z m-246 -10 c-4 -8 -11 -15 -17 -15 -7
0 -7 6 0 21 13 23 26 19 17 -6z m-872 -15 c-3 -5 -13 -10 -21 -10 -8 0 -14 5
-14 10 0 6 9 10 21 10 11 0 17 -4 14 -10z m815 -28 c0 -11 -49 -26 -57 -18 -3
2 5 9 16 15 14 8 18 17 14 29 -6 16 -6 16 10 0 9 -9 17 -21 17 -26z m-600 13
c0 -2 -10 -10 -22 -16 -21 -11 -22 -11 -9 4 13 16 31 23 31 12z m750 -15 c0
-5 -2 -10 -4 -10 -3 0 -8 5 -11 10 -3 6 -1 10 4 10 6 0 11 -4 11 -10z m20 -29
c0 -6 -4 -13 -10 -16 -5 -3 -10 1 -10 9 0 9 5 16 10 16 6 0 10 -4 10 -9z
m-180 -31 c0 -5 -9 -10 -21 -10 -11 0 -17 5 -14 10 3 6 13 10 21 10 8 0 14 -4
14 -10z m85 1 c3 -5 -3 -17 -12 -27 -13 -13 -18 -14 -22 -3 -2 7 1 15 8 17 6
2 9 8 5 13 -3 5 -1 9 5 9 5 0 12 -4 16 -9z m-472 -27 c19 -7 22 -20 7 -29 -6
-4 -8 -11 -5 -16 4 -5 -3 -5 -17 0 -16 6 -23 17 -23 35 -1 15 4 24 10 21 5 -3
18 -8 28 -11z m366 -11 c7 -13 5 -23 -7 -36 -15 -17 -15 -19 1 -28 20 -12 13
-31 -8 -22 -8 3 -15 0 -15 -6 0 -6 -6 -11 -14 -11 -7 0 -20 -7 -27 -16 -12
-15 -11 -16 8 -10 23 7 41 -8 23 -19 -8 -5 -6 -13 6 -26 16 -18 16 -19 -3 -19
-11 0 -26 -7 -33 -16 -11 -13 -10 -16 8 -21 12 -3 22 -9 22 -14 0 -12 -3 -11
-37 3 -15 6 -31 12 -35 12 -25 3 -10 66 16 66 10 0 13 6 10 15 -5 13 -8 13
-27 0 -27 -19 -37 -19 -37 0 0 16 12 34 43 63 9 9 17 21 17 26 0 5 9 24 21 42
23 37 52 44 68 17z m421 -8 c-7 -9 -15 -13 -17 -11 -7 7 7 26 19 26 6 0 6 -6
-2 -15z m-360 -20 c0 -8 -4 -15 -9 -15 -5 0 -11 7 -15 15 -3 9 0 15 9 15 8 0
15 -7 15 -15z m200 11 c0 -2 -7 -7 -16 -10 -8 -3 -12 -2 -9 4 6 10 25 14 25 6z
m-124 -113 c-10 -10 -19 5 -10 18 6 11 8 11 12 0 2 -7 1 -15 -2 -18z m-101
-73 c-3 -5 -10 -10 -16 -10 -5 0 -9 5 -9 10 0 6 7 10 16 10 8 0 12 -4 9 -10z
m83 -6 c18 -2 39 -10 47 -18 12 -12 12 -15 -5 -19 -11 -3 -20 -1 -20 3 0 15
-42 23 -54 10 -8 -10 -8 -14 2 -17 13 -5 7 -23 -9 -23 -5 0 -9 15 -9 34 0 19
-3 36 -7 39 -5 2 -1 2 7 -1 8 -3 30 -6 48 -8z m102 -43 c0 -10 -7 -21 -15 -25
-11 -4 -15 1 -15 19 0 16 6 25 15 25 8 0 15 -9 15 -19z m-212 -37 c7 -13 16
-24 22 -24 6 0 9 -4 5 -9 -3 -5 -22 -7 -43 -4 -64 8 -65 10 -41 42 24 33 41
32 57 -5z"/>
<path d="M580 690 c0 -5 4 -10 9 -10 6 0 13 5 16 10 3 6 -1 10 -9 10 -9 0 -16
-4 -16 -10z"/>
<path d="M602 662 c-7 -5 -10 -16 -6 -25 9 -25 22 -20 22 8 0 14 -1 25 -2 25
0 0 -7 -4 -14 -8z"/>
<path d="M775 430 c-3 -5 3 -10 14 -10 11 0 23 5 26 10 3 6 -3 10 -14 10 -11
0 -23 -4 -26 -10z"/>
<path d="M925 410 c-3 -5 1 -10 9 -10 8 0 18 5 21 10 3 6 -1 10 -9 10 -8 0
-18 -4 -21 -10z"/>
<path d="M842 310 c0 -14 2 -19 5 -12 2 6 2 18 0 25 -3 6 -5 1 -5 -13z"/>
</g>
</svg>
