<?xml version="1.0" standalone="no"?>
<!DOCTYPE svg PUBLIC "-//W3C//DTD SVG 20010904//EN"
 "http://www.w3.org/TR/2001/REC-SVG-20010904/DTD/svg10.dtd">
<svg version="1.0" xmlns="http://www.w3.org/2000/svg"
 width="308.000000pt" height="164.000000pt" viewBox="0 0 308.000000 164.000000"
 preserveAspectRatio="xMidYMid meet">

<g transform="translate(0.000000,164.000000) scale(0.100000,-0.100000)"
fill="#000000" stroke="none">
<path d="M0 820 l0 -820 1540 0 1540 0 0 820 0 820 -1540 0 -1540 0 0 -820z
m720 65 l0 -65 -65 0 -65 0 0 65 0 65 65 0 65 0 0 -65z m320 10 c0 -8 -7 -15
-15 -15 -16 0 -20 12 -8 23 11 12 23 8 23 -8z m640 6 c0 -5 -7 -11 -15 -15
-22 -8 -18 -36 5 -36 11 0 20 6 20 14 0 8 7 16 15 20 10 4 15 -1 15 -14 0 -11
7 -20 15 -20 8 0 15 -4 15 -10 0 -5 -7 -10 -15 -10 -11 0 -15 -11 -15 -35 0
-22 6 -38 15 -41 22 -9 18 -24 -5 -24 -24 0 -40 28 -40 69 0 24 -4 31 -20 31
-17 0 -20 -7 -20 -50 0 -38 -4 -50 -15 -50 -11 0 -15 12 -15 49 0 30 -5 52
-12 55 -10 5 -10 7 0 12 6 3 12 13 12 23 0 9 5 22 12 29 14 14 48 16 48 3z
m880 -26 c0 -32 2 -35 19 -25 25 13 27 13 45 -6 18 -17 23 -114 6 -114 -5 0
-10 23 -10 50 0 36 -4 52 -15 56 -26 10 -45 -16 -45 -62 0 -24 -4 -44 -10 -44
-6 0 -10 37 -10 90 0 53 4 90 10 90 6 0 10 -16 10 -35z m-1689 -37 l23 -62 22
49 c13 28 23 56 23 63 1 6 12 12 26 12 26 0 26 0 23 -82 -2 -52 -7 -83 -15
-85 -8 -3 -13 15 -15 59 l-3 63 -25 -62 c-14 -35 -29 -63 -35 -63 -6 0 -21 28
-35 63 l-25 62 -3 -62 c-4 -94 -22 -76 -22 22 0 76 2 85 19 85 14 0 25 -16 42
-62z m1036 36 c12 -19 11 -24 -6 -45 -19 -23 -19 -24 1 -52 11 -15 18 -33 16
-39 -2 -6 -14 5 -27 25 -31 50 -58 50 -64 0 -2 -21 -4 2 -5 50 l-2 88 36 -3
c24 -2 42 -10 51 -24z m113 -34 c34 -34 26 -50 -25 -50 -43 0 -45 -1 -34 -21
8 -16 18 -20 40 -17 18 3 28 1 26 -6 -5 -16 -42 -19 -66 -6 -30 16 -29 83 1
104 29 20 34 20 58 -4z m100 0 c0 -5 -8 -6 -19 -3 -27 7 -38 -17 -15 -33 41
-29 45 -34 34 -54 -12 -22 -54 -27 -66 -8 -5 7 -1 9 13 6 12 -3 27 -2 34 3 11
8 10 12 -6 24 -53 38 -60 60 -22 74 23 9 47 4 47 -9z m118 -29 c3 -18 -1 -21
-37 -21 -29 0 -41 -4 -41 -15 0 -19 28 -34 53 -27 14 3 18 1 13 -6 -10 -17
-52 -15 -70 4 -30 29 -15 94 24 107 21 7 54 -17 58 -42z m102 -29 c0 -40 -3
-53 -10 -42 -5 8 -7 23 -4 33 4 13 0 17 -21 17 -14 0 -28 -7 -32 -16 -7 -19
14 -35 35 -26 10 3 13 1 8 -6 -10 -17 -41 -15 -57 4 -17 21 -2 45 39 58 40 14
29 42 -12 32 -32 -8 -34 1 -3 13 41 16 57 -3 57 -67z m174 69 c3 -5 -8 -11
-24 -14 -41 -9 -53 -53 -21 -78 12 -10 29 -15 36 -12 8 3 15 0 15 -6 0 -15
-42 -14 -64 2 -27 20 -18 88 14 104 30 15 37 16 44 4z m-1474 -61 c0 -47 -3
-60 -15 -60 -12 0 -15 13 -15 60 0 47 3 60 15 60 12 0 15 -13 15 -60z m110 51
c0 -5 -10 -11 -21 -13 -49 -7 -49 -74 0 -72 11 0 21 -5 21 -13 0 -19 -50 -16
-72 4 -22 20 -23 61 -1 85 17 18 73 25 73 9z m90 0 c0 -3 -9 -12 -20 -19 -15
-9 -20 -23 -20 -52 0 -29 -4 -40 -15 -40 -12 0 -15 13 -15 59 l0 59 35 0 c19
0 35 -3 35 -7z m116 -16 c21 -32 11 -72 -22 -87 -58 -27 -114 35 -80 87 23 35
79 35 102 0z m104 15 c0 -5 -11 -10 -25 -10 -14 0 -25 -4 -25 -8 0 -5 11 -14
25 -20 29 -13 35 -56 9 -66 -28 -11 -64 -6 -64 8 0 9 8 12 25 8 17 -3 25 0 25
10 0 8 -11 20 -25 26 -23 11 -33 40 -18 55 10 11 73 8 73 -3z m126 -15 c34
-52 -22 -114 -80 -87 -58 26 -36 112 29 112 26 0 39 -6 51 -25z m825 9 c-16
-12 -21 -26 -21 -60 0 -24 -4 -44 -10 -44 -6 0 -10 26 -10 58 l0 59 31 1 c31
1 31 0 10 -14z m-1841 -89 l0 -65 -60 0 -60 0 0 65 0 65 60 0 60 0 0 -65z
m150 0 l0 -65 -65 0 -65 0 0 65 0 65 65 0 65 0 0 -65z"/>
<path d="M1830 850 c0 -25 4 -30 24 -30 13 0 29 6 35 14 18 22 2 46 -30 46
-26 0 -29 -4 -29 -30z"/>
<path d="M1967 834 c-17 -17 -5 -34 24 -34 24 0 30 4 27 18 -3 17 -38 29 -51
16z"/>
<path d="M2173 833 c-26 -10 -13 -33 18 -33 24 0 30 4 27 17 -3 18 -24 26 -45
16z"/>
<path d="M1280 810 c-8 -14 -8 -26 0 -40 21 -40 67 -11 56 35 -8 31 -41 34
-56 5z"/>
<path d="M1512 818 c-23 -23 -7 -68 25 -68 21 0 35 37 23 60 -12 23 -30 26
-48 8z"/>
</g>
</svg>
