<svg xmlns="http://www.w3.org/2000/svg" xmlns:xlink="http://www.w3.org/1999/xlink" viewBox="0 0 91.47 91.46"><defs><clipPath id="a" transform="translate(-466.27 -466.27)"><path d="M522.31,541.06a55,55,0,0,0,16.75-2.65c1.27-.43,2.48-.9,3.63-1.41a20.39,20.39,0,0,1-6.15,8.41,41.29,41.29,0,0,1-18.35,7.6,42.9,42.9,0,0,0,4.12-12M494,549.39a1.9,1.9,0,0,0-.41-.27c-2.36-1.15-3.32-6.42-2.09-14.47a73.09,73.09,0,0,0,14.68,4.77,74.91,74.91,0,0,0,11.7,1.56c-1.88,8.17-4.29,12.47-5.89,12.47a1.91,1.91,0,0,0-.3,0A41.25,41.25,0,0,1,494,549.39m-21.93-26a22.25,22.25,0,0,1-.69-4.22,37.18,37.18,0,0,0,5.21,5.9,53,53,0,0,0,10.93,7.65,39.1,39.1,0,0,0-.55,12.4,41.57,41.57,0,0,1-14.91-21.74M525,511.92c0-1.66,0-3.33-.07-5a33,33,0,0,0,14.2-4,50.07,50.07,0,0,1,5.69,22.42,34.92,34.92,0,0,1-.52,6,32.55,32.55,0,0,1-6.58,3,50,50,0,0,1-14.59,2.42A155.67,155.67,0,0,0,525,511.92m-17.87,23.33a68.61,68.61,0,0,1-14.76-4.92A109.19,109.19,0,0,1,501,506.64q1-1.95,1.94-3.82a49.32,49.32,0,0,0,9.87,3.2,45,45,0,0,0,7.89,1q.07,2.39.07,4.94a143.36,143.36,0,0,1-2,24.83,71,71,0,0,1-11.66-1.5m-27.59-13.35a27.06,27.06,0,0,1-7.36-10.39,33.07,33.07,0,0,1,5.8-11.67,46.17,46.17,0,0,1,9.95-9.6,24.13,24.13,0,0,0,4.67,5.85,35.23,35.23,0,0,0,6.54,4.78q-1,1.91-2,3.89a118.75,118.75,0,0,0-8.66,23.56,47.42,47.42,0,0,1-9-6.43m42.57-39.53a57.34,57.34,0,0,1,13,13.68q1.05,1.54,2,3.13a29,29,0,0,1-12.33,3.47,119.41,119.41,0,0,0-2.64-20.28m-8.43,19.49a44.87,44.87,0,0,1-8.7-2.79,91.38,91.38,0,0,1,12.59-17.47,111.88,111.88,0,0,1,2.93,21.12,40.65,40.65,0,0,1-6.83-.87M495.49,493a19.29,19.29,0,0,1-4-5.09,57.67,57.67,0,0,1,13.1-5.77,61.58,61.58,0,0,1,8.44-1.89,100,100,0,0,0-11.87,16.91,30.82,30.82,0,0,1-5.68-4.16m-9.15-13.55c-.06.21-.12.43-.17.66a13.46,13.46,0,0,0,.12,6.1,50.78,50.78,0,0,0-11.73,11.08,42.57,42.57,0,0,0-2.61,3.89,41.58,41.58,0,0,1,14.38-21.74m4,1.54a10.19,10.19,0,0,1,3.85-5.81c5-1.48,10.74-1.13,16.82,1.1a64.45,64.45,0,0,0-7.63,1.8,62.14,62.14,0,0,0-13.18,5.67,9,9,0,0,1,.14-2.75m34.51-5.6a13.39,13.39,0,0,1,3.93-1.86,31.92,31.92,0,0,1,6.25,3.33,52.64,52.64,0,0,0-10.18-1.47m-7.17-4.55a47.48,47.48,0,0,1,5.46.93,27.64,27.64,0,0,0-3.66,2.39,21.63,21.63,0,0,0-1.8-3.32m-4.61,1.67a39.31,39.31,0,0,0-5.7-1.71,41.06,41.06,0,0,1,4.57-.27c.72,0,1.61.88,2.54,2.56-.47-.2-.94-.4-1.42-.58M466.27,512A45.57,45.57,0,0,0,468,524.54c.07.27.14.54.21.8l.06.15a45.71,45.71,0,0,0,69.34,24.37l.21-.12q.65-.44,1.26-.93a45.85,45.85,0,0,0,17.25-25.69c.15-.48.28-1,.38-1.46a2.06,2.06,0,0,0,0-.35,45.87,45.87,0,0,0-2.65-27.09,2.13,2.13,0,0,0-3.92,1.66,41.5,41.5,0,0,1,2,26.1,15,15,0,0,1-3.26,5.57c0-.72.06-1.45.06-2.2a54.62,54.62,0,0,0-6.42-24.88,16.44,16.44,0,0,0,5.7-9.53,2.13,2.13,0,0,0-4.18-.77,12,12,0,0,1-3.65,6.49c-.61-1-1.24-2-1.91-3a62,62,0,0,0-13-14,40.77,40.77,0,0,1,17.1,4.64,2.17,2.17,0,0,0,2.44-.17,2.13,2.13,0,0,0,.27-3c-6.85-9.58-18.7-14.87-33.38-14.87A45.78,45.78,0,0,0,466.27,512" style="fill:none"/></clipPath><radialGradient id="b" cx="360.8" cy="839.99" r="1.25" gradientTransform="matrix(60.74, 0, 0, -60.74, -21828.55, 51040.11)" gradientUnits="userSpaceOnUse"><stop offset="0" stop-color="#fff"/><stop offset="0.06" stop-color="#e7f6fd"/><stop offset="0.18" stop-color="#afe2fa"/><stop offset="0.36" stop-color="#37c6f4"/><stop offset="0.54" stop-color="#00aeef"/><stop offset="1" stop-color="#002f54"/></radialGradient></defs><title>World Bank logo</title><g style="clip-path:url(#a)"><rect width="91.47" height="91.46" style="fill:url(#b)"/></g></svg>